<?xml version="1.0" encoding="UTF-8" standalone="no"?>
<svg
   xmlns:dc="http://purl.org/dc/elements/1.1/"
   xmlns:cc="http://creativecommons.org/ns#"
   xmlns:rdf="http://www.w3.org/1999/02/22-rdf-syntax-ns#"
   xmlns:svg="http://www.w3.org/2000/svg"
   xmlns="http://www.w3.org/2000/svg"
   xmlns:sodipodi="http://sodipodi.sourceforge.net/DTD/sodipodi-0.dtd"
   xmlns:inkscape="http://www.inkscape.org/namespaces/inkscape"
   viewBox="0 0 60 60"
   version="1.1"
   id="svg4"
   sodipodi:docname="bootstrap.svg"
   width="60"
   height="60"
   inkscape:version="0.92.5 (2060ec1f9f, 2020-04-08)">
  <metadata
     id="metadata10">
    <rdf:RDF>
      <cc:Work
         rdf:about="">
        <dc:format>image/svg+xml</dc:format>
        <dc:type
           rdf:resource="http://purl.org/dc/dcmitype/StillImage" />
        <dc:title></dc:title>
      </cc:Work>
    </rdf:RDF>
  </metadata>
  <defs
     id="defs8" />
  <sodipodi:namedview
     pagecolor="#ffffff"
     bordercolor="#666666"
     borderopacity="1"
     objecttolerance="10"
     gridtolerance="10"
     guidetolerance="10"
     inkscape:pageopacity="0"
     inkscape:pageshadow="2"
     inkscape:window-width="849"
     inkscape:window-height="771"
     id="namedview6"
     showgrid="false"
     borderlayer="true"
     inkscape:showpageshadow="false"
     fit-margin-top="0"
     fit-margin-left="0"
     fit-margin-right="0"
     fit-margin-bottom="0"
     inkscape:zoom="1.84375"
     inkscape:cx="63"
     inkscape:cy="63"
     inkscape:window-x="53"
     inkscape:window-y="27"
     inkscape:window-maximized="0"
     inkscape:current-layer="svg4" />
  <path
     d="M 35.85648,30.52944 C 34.73616,30.1608 33.12336,30.24 31.01808,30.24 H 22.56 v 11.04 h 9.04512 c 1.41312,0 2.40576,-0.1512 2.97744,-0.2568 1.00752,-0.18048 1.84992,-0.52992 2.52672,-0.95136 0.67632,-0.42048 1.23264,-1.0584 1.66944,-1.86288 0.43584,-0.80448 0.65424,-1.74576 0.65424,-2.7984 0,-1.23264 -0.31584,-2.1792 -0.948,-3.08928 -0.63168,-0.91008 -1.50768,-1.4232 -2.62848,-1.79184 z m -1.16112,-5.04768 c 1.11216,-0.33024 1.95072,-0.9072 2.51472,-1.67376 0.56448,-0.76704 0.84624,-1.74288 0.84624,-2.90112 0,-1.09728 -0.26352,-2.07072 -0.79008,-2.90592 -0.52656,-0.8352 -1.27776,-1.15824 -2.25552,-1.46688 C 34.03296,16.2264 32.35632,16.32 29.98032,16.32 H 22.56 v 9.6 h 7.96176 c 1.94016,0 3.33072,-0.1824 4.1736,-0.43824 z M 60,7.98 C 60,3.57264 56.42736,0 52.02,0 H 7.98 C 3.57264,0 0,3.57264 0,7.98 V 52.02 C 0,56.42736 3.57264,60 7.98,60 H 52.02 C 56.42736,60 60,56.42736 60,52.02 Z M 42.98544,39.7176 c -0.65376,1.33104 -1.46256,2.35728 -2.42496,3.0792 -0.96288,0.72192 -2.17008,1.3344 -3.62112,1.70304 C 35.4888,44.86896 33.70992,45.12 31.60512,45.12 H 18.24 V 12 h 13.1616 c 2.52672,0 4.5528,0.29232 6.0792,0.96096 1.52688,0.6696 2.72208,1.67856 3.58752,3.0696 0.86448,1.39104 1.29696,2.83536 1.29696,4.35408 0,1.4136 -0.384,2.73984 -1.15056,3.98784 -0.76704,1.24896 -1.92528,2.25312 -3.47376,3.02016 1.99968,0.58656 3.5376,1.58592 4.6128,2.99904 1.0752,1.4136 1.6128,3.08256 1.6128,5.00736 0,1.54896 -0.32688,2.988 -0.98112,4.31856 z"
     id="path2"
     inkscape:connector-curvature="0"
     style="fill:#5b4282;stroke-width:0.47999999" />
</svg>
