<?xml version="1.0" encoding="UTF-8" standalone="no"?>
<svg
   xmlns:dc="http://purl.org/dc/elements/1.1/"
   xmlns:cc="http://creativecommons.org/ns#"
   xmlns:rdf="http://www.w3.org/1999/02/22-rdf-syntax-ns#"
   xmlns:svg="http://www.w3.org/2000/svg"
   xmlns="http://www.w3.org/2000/svg"
   xmlns:sodipodi="http://sodipodi.sourceforge.net/DTD/sodipodi-0.dtd"
   xmlns:inkscape="http://www.inkscape.org/namespaces/inkscape"
   viewBox="0 0 60 68.046883"
   version="1.1"
   id="svg14"
   sodipodi:docname="css3.svg"
   width="60"
   height="68.046883"
   inkscape:version="0.92.5 (2060ec1f9f, 2020-04-08)">
  <metadata
     id="metadata20">
    <rdf:RDF>
      <cc:Work
         rdf:about="">
        <dc:format>image/svg+xml</dc:format>
        <dc:type
           rdf:resource="http://purl.org/dc/dcmitype/StillImage" />
        <dc:title></dc:title>
      </cc:Work>
    </rdf:RDF>
  </metadata>
  <defs
     id="defs18" />
  <sodipodi:namedview
     pagecolor="#ffffff"
     bordercolor="#666666"
     borderopacity="1"
     objecttolerance="10"
     gridtolerance="10"
     guidetolerance="10"
     inkscape:pageopacity="0"
     inkscape:pageshadow="2"
     inkscape:window-width="902"
     inkscape:window-height="934"
     id="namedview16"
     showgrid="false"
     borderlayer="true"
     inkscape:showpageshadow="false"
     fit-margin-top="0"
     fit-margin-left="0"
     fit-margin-right="0"
     fit-margin-bottom="0"
     inkscape:zoom="1.84375"
     inkscape:cx="55.24"
     inkscape:cy="62.649"
     inkscape:window-x="53"
     inkscape:window-y="27"
     inkscape:window-maximized="0"
     inkscape:current-layer="svg14" />
  <g
     id="g28"
     transform="matrix(0.54308472,0,0,0.54308472,-4.7574221,-0.73425054)">
    <path
       id="path2"
       d="M 18.814,114.123 8.76,1.352 h 110.48 l -10.064,112.754 -45.243,12.543 z"
       inkscape:connector-curvature="0"
       style="fill:#1572b6" />
    <path
       id="path4"
       d="m 64.001,117.062 36.559,-10.136 8.601,-96.354 h -45.16 z"
       inkscape:connector-curvature="0"
       style="fill:#33a9dc" />
    <path
       id="path6"
       d="M 64.001,51.429 H 82.303 L 83.567,37.266 H 64.001 V 23.435 h 34.682 l -0.332,3.711 -3.4,38.114 h -30.95 z"
       inkscape:connector-curvature="0"
       style="fill:#ffffff" />
    <path
       id="path8"
       d="M 64.083,87.349 64.022,87.367 48.619,83.208 47.634,72.177 H 33.752 l 1.937,21.717 28.331,7.863 0.063,-0.018 z"
       inkscape:connector-curvature="0"
       style="fill:#ebebeb" />
    <path
       id="path10"
       d="m 81.127,64.675 -1.666,18.522 -15.426,4.164 v 14.39 l 28.354,-7.858 0.208,-2.337 2.406,-26.881 z"
       inkscape:connector-curvature="0"
       style="fill:#ffffff" />
    <path
       id="path12"
       d="M 64.048,23.435 V 37.266 H 30.64 l -0.277,-3.108 -0.63,-7.012 -0.331,-3.711 z M 64.001,51.431 V 65.262 H 48.792 l -0.277,-3.108 -0.631,-7.012 -0.33,-3.711 z"
       inkscape:connector-curvature="0"
       style="fill:#ebebeb" />
  </g>
</svg>
