<?xml version="1.0" encoding="UTF-8" standalone="no"?>
<svg
   viewBox="0 0 60 45"
   version="1.1"
   id="svg4"
   sodipodi:docname="envelope.svg"
   width="60"
   height="45"
   inkscape:version="1.2.2 (b0a8486541, 2022-12-01)"
   xmlns:inkscape="http://www.inkscape.org/namespaces/inkscape"
   xmlns:sodipodi="http://sodipodi.sourceforge.net/DTD/sodipodi-0.dtd"
   xmlns="http://www.w3.org/2000/svg"
   xmlns:svg="http://www.w3.org/2000/svg"
   xmlns:rdf="http://www.w3.org/1999/02/22-rdf-syntax-ns#"
   xmlns:cc="http://creativecommons.org/ns#"
   xmlns:dc="http://purl.org/dc/elements/1.1/">
  <metadata
     id="metadata10">
    <rdf:RDF>
      <cc:Work
         rdf:about="">
        <dc:format>image/svg+xml</dc:format>
        <dc:type
           rdf:resource="http://purl.org/dc/dcmitype/StillImage" />
        <dc:title />
      </cc:Work>
    </rdf:RDF>
  </metadata>
  <defs
     id="defs8" />
  <sodipodi:namedview
     pagecolor="#ffffff"
     bordercolor="#666666"
     borderopacity="1"
     objecttolerance="10"
     gridtolerance="10"
     guidetolerance="10"
     inkscape:pageopacity="0"
     inkscape:pageshadow="2"
     inkscape:window-width="1866"
     inkscape:window-height="1011"
     id="namedview6"
     showgrid="false"
     borderlayer="true"
     inkscape:showpageshadow="false"
     fit-margin-top="0"
     fit-margin-left="0"
     fit-margin-right="0"
     fit-margin-bottom="0"
     inkscape:zoom="3.6875"
     inkscape:cx="68.067797"
     inkscape:cy="49.355932"
     inkscape:window-x="54"
     inkscape:window-y="32"
     inkscape:window-maximized="1"
     inkscape:current-layer="svg4"
     inkscape:pagecheckerboard="0"
     inkscape:deskcolor="#d1d1d1"
     inkscape:lockguides="true" />
  <path
     d="M 54.375,0 H 5.625 C 2.5183594,0 0,2.51836 0,5.625 v 33.75 C 0,42.48164 2.5183594,45 5.625,45 h 48.75 C 57.481641,45 60,42.48164 60,39.375 V 5.625 C 60,2.51836 57.481641,0 54.375,0 Z m 0,5.625 v 4.78184 c -2.627578,2.13972 -6.816563,5.46691 -15.771914,12.47929 -1.973555,1.55239 -5.88293,5.28188 -8.603086,5.2384 -2.719688,0.0439 -6.630352,-3.6866 -8.603086,-5.2384 C 12.442969,15.8748 8.2529297,12.54691 5.625,10.40684 V 5.625 Z M 5.625,39.375 V 17.62477 c 2.6852344,2.13878 6.493242,5.14007 12.297422,9.68507 2.561367,2.01621 7.046953,6.46711 12.077578,6.44004 5.005898,0.0271 9.434648,-4.35926 12.076523,-6.4391 5.804063,-4.54488 9.613125,-7.54699 12.298477,-9.6859 V 39.375 Z"
     id="path2"
     inkscape:connector-curvature="0"
     style="stroke-width:0.1171875;fill:#999999" />
</svg>
