<?xml version="1.0" encoding="UTF-8" standalone="no"?>
<svg
   xmlns:dc="http://purl.org/dc/elements/1.1/"
   xmlns:cc="http://creativecommons.org/ns#"
   xmlns:rdf="http://www.w3.org/1999/02/22-rdf-syntax-ns#"
   xmlns:svg="http://www.w3.org/2000/svg"
   xmlns="http://www.w3.org/2000/svg"
   xmlns:sodipodi="http://sodipodi.sourceforge.net/DTD/sodipodi-0.dtd"
   xmlns:inkscape="http://www.inkscape.org/namespaces/inkscape"
   viewBox="0 0 60 44.528713"
   version="1.1"
   id="svg121"
   sodipodi:docname="gimp.svg"
   width="60"
   height="44.528713"
   inkscape:version="0.92.5 (2060ec1f9f, 2020-04-08)">
  <metadata
     id="metadata127">
    <rdf:RDF>
      <cc:Work
         rdf:about="">
        <dc:format>image/svg+xml</dc:format>
        <dc:type
           rdf:resource="http://purl.org/dc/dcmitype/StillImage" />
        <dc:title></dc:title>
      </cc:Work>
    </rdf:RDF>
  </metadata>
  <defs
     id="defs125" />
  <sodipodi:namedview
     pagecolor="#ffffff"
     bordercolor="#666666"
     borderopacity="1"
     objecttolerance="10"
     gridtolerance="10"
     guidetolerance="10"
     inkscape:pageopacity="0"
     inkscape:pageshadow="2"
     inkscape:window-width="896"
     inkscape:window-height="896"
     id="namedview123"
     showgrid="false"
     borderlayer="true"
     inkscape:showpageshadow="false"
     fit-margin-top="0"
     fit-margin-left="0"
     fit-margin-right="0"
     fit-margin-bottom="0"
     inkscape:zoom="1.84375"
     inkscape:cx="63.450344"
     inkscape:cy="45.642255"
     inkscape:window-x="53"
     inkscape:window-y="27"
     inkscape:window-maximized="0"
     inkscape:current-layer="svg121" />
  <g
     id="g119"
     transform="matrix(0.47404844,0,0,0.47404844,-0.26056336,-7.9612469)">
    <radialGradient
       id="a"
       cx="359.38199"
       cy="134.83"
       r="50.57"
       gradientTransform="matrix(1,0,0,-0.435,-297.375,140.218)"
       gradientUnits="userSpaceOnUse">
      <stop
         offset="0"
         id="stop2" />
      <stop
         offset="1"
         stop-opacity="0"
         id="stop4" />
    </radialGradient>
    <path
       d="m 112.6,81.6 c 0,12.1 -22.6,22 -50.6,22 -28,0 -50.6,-9.8 -50.6,-22 0,-12.2 22.6,-22 50.6,-22 28,0 50.6,9.8 50.6,22 z"
       id="path7"
       style="fill:url(#a)"
       inkscape:connector-curvature="0" />
    <radialGradient
       id="b"
       cx="201.74899"
       cy="230.895"
       r="53.284"
       gradientTransform="matrix(1.773,0,0,-1.297,-313.84,354.268)"
       gradientUnits="userSpaceOnUse">
      <stop
         offset="0"
         stop-color="#857C63"
         id="stop9" />
      <stop
         offset="1"
         stop-color="#221F19"
         id="stop11" />
    </radialGradient>
    <path
       stroke-miterlimit="10"
       d="m 26.7,27.6 c 0,0 8,16.4 26.6,16 39.1,-1 45.9,-21.4 46.9,-24.3 1,-2.9 2.5,-2.5 2.8,0.2 12.7,115.6 -88.4,66 -92,46.3 C 31.1,60 26.2,48.7 26.2,48.7 Z"
       id="path14"
       style="fill:url(#b);stroke:#2e3436;stroke-miterlimit:10"
       inkscape:connector-curvature="0" />
    <linearGradient
       id="c"
       gradientUnits="userSpaceOnUse"
       x1="378.84399"
       y1="204.625"
       x2="347.98401"
       y2="198.502"
       gradientTransform="matrix(1,0,0,-1,-301.337,279.346)">
      <stop
         offset="0"
         id="stop16" />
      <stop
         offset="1"
         stop-opacity="0"
         id="stop18" />
    </linearGradient>
    <path
       d="m 41.5,76.4 c 18.7,3.7 28.2,0.3 33.7,-4 -1.5,-1.9 -4,-4 -4,-4 0,0 6.5,1.8 8.8,4.8 2.3,3 0.9,4.8 0.3,8.6 -1.3,-3.3 -3.8,-4.6 -4.2,-5.9 -4.9,6.9 -17.4,6.6 -34.6,0.5 z"
       id="path21"
       style="fill:url(#c)"
       inkscape:connector-curvature="0" />
    <linearGradient
       id="d"
       gradientUnits="userSpaceOnUse"
       x1="348.04599"
       y1="240.776"
       x2="413.38599"
       y2="166.604"
       gradientTransform="matrix(1,0,0,-1,-297.5,279)">
      <stop
         offset="0"
         stop-color="#fff"
         id="stop23" />
      <stop
         offset="1"
         stop-color="#fff"
         stop-opacity="0"
         id="stop25" />
    </linearGradient>
    <path
       stroke-miterlimit="10"
       d="M 100.4,25.9 C 98.8,28.5 96.5,31.5 93,34.5 85.7,40.5 73.5,46 53.4,46.5 41.7,46.8 34.1,41.1 29.5,36.1 l -0.3,12.4 c 0.4,1.2 1.2,3.9 -0.2,7.5 -1.4,4 -6,8 -13.8,11.1 0.7,1.4 1.4,2.9 3.5,4.9 2.8,2.8 6.8,5.8 11.5,8.5 9.4,5.4 21.6,9.7 33,9.9 11.4,0.2 21.8,-3.4 28.9,-13.9 6.5,-9.6 10.2,-25.8 8.3,-50.6 z"
       id="path28"
       style="opacity:0.18500001;fill:none;stroke:url(#d);stroke-miterlimit:10;enable-background:new"
       inkscape:connector-curvature="0" />
    <radialGradient
       id="e"
       cx="259.173"
       cy="242.80901"
       r="9.7410002"
       gradientTransform="matrix(1.685,0,0,-1.685,-400.899,453.504)"
       gradientUnits="userSpaceOnUse">
      <stop
         offset="0"
         stop-color="#fff"
         id="stop30" />
      <stop
         offset="1"
         stop-color="#B9B9B0"
         id="stop32" />
    </radialGradient>
    <path
       stroke-miterlimit="10"
       d="m 47,52.4 c 0,6.2 -5,11.3 -11.3,11.3 -6.3,0 -11.3,-5 -11.3,-11.3 0,-6.3 5,-11.3 11.3,-11.3 6.3,0 11.3,5 11.3,11.3 z"
       id="path35"
       style="fill:url(#e);stroke:#888a85;stroke-width:0.78299999;stroke-miterlimit:10"
       inkscape:connector-curvature="0" />
    <radialGradient
       id="f"
       cx="274.25201"
       cy="84.307999"
       r="13.387"
       gradientTransform="matrix(0.797,-0.46,-0.537,-0.931,-163.086,262.495)"
       gradientUnits="userSpaceOnUse">
      <stop
         offset="0"
         stop-color="#5B676B"
         id="stop37" />
      <stop
         offset="1"
         stop-color="#141718"
         id="stop39" />
    </radialGradient>
    <path
       stroke-miterlimit="10"
       d="m 24.6,56.6 c 5.5,7.6 5.5,16.8 0.2,20.7 C 19.4,81.2 10.6,78.2 5.2,70.6 -0.3,63 -0.3,53.8 5,49.9 10.3,46 19.1,49 24.6,56.6 Z"
       id="path42"
       style="fill:url(#f);stroke:#000000;stroke-miterlimit:10"
       inkscape:connector-curvature="0" />
    <path
       stroke-miterlimit="10"
       d="m 43.8,54 c 0,3 -2.4,5.4 -5.4,5.4 -3,0 -5.4,-2.4 -5.4,-5.4 0,-3 2.4,-5.4 5.4,-5.4 3,0 5.4,2.4 5.4,5.4 z"
       id="path44"
       inkscape:connector-curvature="0"
       style="fill:#2e3436;stroke:#000000;stroke-width:1.17400002;stroke-miterlimit:10" />
    <linearGradient
       id="g"
       gradientUnits="userSpaceOnUse"
       x1="230.297"
       y1="47.32"
       x2="229.46001"
       y2="25.884001"
       gradientTransform="matrix(0.8,-0.6,-0.6,-0.8,-147.318,231.235)">
      <stop
         offset="0"
         stop-color="#fff"
         id="stop46" />
      <stop
         offset="1"
         stop-color="#fff"
         stop-opacity="0"
         id="stop48" />
    </linearGradient>
    <path
       stroke-miterlimit="10"
       d="M 5.9,52.4 C 4.2,53.7 3.2,56 3.3,59 c 0.1,3 1.3,6.8 3.8,10.1 2.5,3.3 5.7,5.5 8.6,6.4 2.9,0.9 5.3,0.7 7.1,-0.7 1.8,-1.3 2.7,-3.7 2.6,-6.7 -0.1,-3 -1.2,-6.7 -3.7,-10 -2.5,-3.3 -5.6,-5.4 -8.6,-6.4 -2.9,-0.9 -5.4,-0.6 -7.2,0.7 z"
       id="path51"
       style="opacity:0.281;fill:none;stroke:url(#g);stroke-miterlimit:10;enable-background:new"
       inkscape:connector-curvature="0" />
    <path
       d="m 14.1,57.5 c 0,3.2 -2.2,5.9 -4.9,5.9 -2.7,0 -4.9,-2.6 -4.9,-5.9 0,-3.2 2.2,-5.9 4.9,-5.9 2.7,0 4.9,2.7 4.9,5.9 z"
       id="path53"
       inkscape:connector-curvature="0"
       style="fill:#ffffff" />
    <path
       d="m 40,51.5 c 0,2.1 -1.7,3.8 -3.8,3.8 -2.1,0 -3.8,-1.7 -3.8,-3.8 0,-2.1 1.7,-3.8 3.8,-3.8 2.2,0.1 3.8,1.8 3.8,3.8 z"
       id="path55"
       inkscape:connector-curvature="0"
       style="fill:#ffffff" />
    <radialGradient
       id="h"
       cx="238.588"
       cy="244.87199"
       r="9.7410002"
       gradientTransform="matrix(1.978,0,0,-1.978,-412.858,528.573)"
       gradientUnits="userSpaceOnUse">
      <stop
         offset="0"
         stop-color="#fff"
         id="stop57" />
      <stop
         offset="1"
         stop-color="#B9B9B0"
         id="stop59" />
    </radialGradient>
    <path
       stroke-miterlimit="10"
       d="m 72.2,53.6 c 0,7.3 -5.9,13.2 -13.2,13.2 -7.3,0 -13.2,-5.9 -13.2,-13.2 0,-7.3 5.9,-13.2 13.2,-13.2 7.3,0 13.2,5.9 13.2,13.2 z"
       id="path62"
       style="fill:url(#h);stroke:#888a85;stroke-width:0.667;stroke-miterlimit:10"
       inkscape:connector-curvature="0" />
    <path
       stroke-miterlimit="10"
       d="m 68.5,55.5 c 0,3.5 -2.9,6.4 -6.4,6.4 -3.5,0 -6.4,-2.9 -6.4,-6.4 0,-3.5 2.9,-6.4 6.4,-6.4 3.5,0.1 6.4,2.9 6.4,6.4 z"
       id="path64"
       inkscape:connector-curvature="0"
       style="fill:#2e3436;stroke:#000000;stroke-miterlimit:10" />
    <path
       d="m 64.1,52.6 c 0,2.4 -2,4.4 -4.4,4.4 -2.4,0 -4.4,-2 -4.4,-4.4 0,-2.4 2,-4.4 4.4,-4.4 2.4,0 4.4,2 4.4,4.4 z"
       id="path66"
       inkscape:connector-curvature="0"
       style="fill:#ffffff" />
    <g
       transform="matrix(-0.115,-0.39,0.39,-0.115,24.715,29.689)"
       id="g110">
      <linearGradient
         id="i"
         gradientUnits="userSpaceOnUse"
         x1="1581.422"
         y1="-398.27399"
         x2="1555.752"
         y2="-420.60001"
         gradientTransform="matrix(-0.115,0.39,0.39,0.115,175.179,-456.047)">
        <stop
           offset="0"
           stop-color="#6E3D09"
           id="stop68" />
        <stop
           offset=".242"
           stop-color="#EA8113"
           id="stop70" />
        <stop
           offset=".621"
           stop-color="#5C3307"
           id="stop72" />
        <stop
           offset="1"
           stop-color="#E07C12"
           id="stop74" />
      </linearGradient>
      <path
         d="m -201.5,132 10.3,9.6 c 23.1,-17.7 47.4,-55.7 47.4,-55.7 5.5,-6.2 -0.3,-10.4 -6,-6.6 0,0 -36,28 -51.7,52.7 z"
         id="path77"
         style="fill:url(#i);stroke:#673907;stroke-width:2.46099997;stroke-linecap:round"
         inkscape:connector-curvature="0" />
      <linearGradient
         id="j"
         gradientUnits="userSpaceOnUse"
         x1="1691.417"
         y1="-496.24301"
         x2="1701.71"
         y2="-486.71799"
         gradientTransform="matrix(-0.115,0.39,0.39,0.115,178.077,-459.728)">
        <stop
           offset="0"
           stop-color="#BDBDBD"
           id="stop79" />
        <stop
           offset=".333"
           stop-color="#E2E2E2"
           id="stop81" />
        <stop
           offset=".667"
           stop-color="#A3A3A3"
           id="stop83" />
        <stop
           offset="1"
           stop-color="#ddd"
           id="stop85" />
      </linearGradient>
      <path
         d="m -221.1,157.6 6.2,5.4 23.5,-20.4 0.8,-2 h 3 c -1.2,-4.3 -8.2,-12.1 -13.3,-12.1 l 0.2,3 -1.9,1.1 z"
         id="path88"
         style="fill:url(#j);stroke:#888a85;stroke-width:2.46099997;stroke-linecap:round"
         inkscape:connector-curvature="0" />
      <path
         d="m -202.7,145.3 -12.1,14.6"
         id="path90"
         inkscape:connector-curvature="0"
         style="fill:none;stroke:#ffffff;stroke-width:2.46099997;stroke-linecap:round;stroke-linejoin:round" />
      <radialGradient
         id="k"
         cx="958.40601"
         cy="-380.26199"
         r="21.002001"
         gradientTransform="matrix(-0.181,0.598,0.613,0.176,183.272,-348.089)"
         gradientUnits="userSpaceOnUse">
        <stop
           offset="0"
           stop-color="#696969"
           id="stop92" />
        <stop
           offset="1"
           id="stop94" />
      </radialGradient>
      <path
         d="m -262.4,185.2 c 28.9,0 50.9,3.4 55.1,-17.6 3.4,-17 -20,-25.1 -31.5,-10 -11.2,14.6 -23.6,27.6 -23.6,27.6 z"
         id="path97"
         style="fill:url(#k)"
         inkscape:connector-curvature="0" />
      <path
         d="m -209.8,168.2 c 0,4 -3.2,7.2 -7.2,7.2 -4,0 -7.2,-3.2 -7.2,-7.2 0,-4 3.2,-7.2 7.2,-7.2 4,0 7.2,3.2 7.2,7.2 z"
         id="path99"
         inkscape:connector-curvature="0"
         style="opacity:0.528;fill:#ffffff;enable-background:new" />
      <path
         d="m -191.2,141.1 c 0,2.7 -2.2,4.8 -4.8,4.8 -2.6,0 -4.8,-2.2 -4.8,-4.8 0,-2.7 2.2,-4.8 4.8,-4.8 2.6,-0.1 4.8,2.1 4.8,4.8 z"
         id="path101"
         inkscape:connector-curvature="0"
         style="fill:#ffffff" />
      <linearGradient
         id="l"
         gradientUnits="userSpaceOnUse"
         x1="2046.356"
         y1="702.98499"
         x2="2031.16"
         y2="715.53699"
         gradientTransform="matrix(-0.241,0.249,0.249,0.241,95.193,-501.932)">
        <stop
           offset="0"
           stop-color="#fff"
           id="stop103" />
        <stop
           offset="1"
           stop-color="#fff"
           stop-opacity="0"
           id="stop105" />
      </linearGradient>
      <path
         d="m -243.6,180 c 0,0 10.3,0.3 16.9,-3.9 2.3,-1.5 4.2,1.8 1.4,3 -6.1,2.6 -18.3,0.9 -18.3,0.9 z"
         id="path108"
         style="opacity:0.428;fill:url(#l);enable-background:new"
         inkscape:connector-curvature="0" />
    </g>
    <linearGradient
       id="m"
       gradientUnits="userSpaceOnUse"
       x1="367.72299"
       y1="202.12801"
       x2="362.64099"
       y2="200.90401"
       gradientTransform="matrix(1,0,0,-1,-297.5,279)">
      <stop
         offset="0"
         id="stop112" />
      <stop
         offset="1"
         stop-opacity="0"
         id="stop114" />
    </linearGradient>
    <path
       d="m 61.7,81 c 4.1,0.4 7.9,-0.8 9.5,-1.3 0.3,-1.5 1.5,-4.5 5.7,-4.7 l -1.5,-2.6 c 0,0 -5.4,3.7 -11.3,4.8 z"
       id="path117"
       style="fill:url(#m)"
       inkscape:connector-curvature="0" />
  </g>
</svg>
