<?xml version="1.0" encoding="UTF-8" standalone="no"?>
<svg
   xmlns:dc="http://purl.org/dc/elements/1.1/"
   xmlns:cc="http://creativecommons.org/ns#"
   xmlns:rdf="http://www.w3.org/1999/02/22-rdf-syntax-ns#"
   xmlns:svg="http://www.w3.org/2000/svg"
   xmlns="http://www.w3.org/2000/svg"
   xmlns:sodipodi="http://sodipodi.sourceforge.net/DTD/sodipodi-0.dtd"
   xmlns:inkscape="http://www.inkscape.org/namespaces/inkscape"
   viewBox="0 0 60 59.999226"
   version="1.1"
   id="svg4"
   sodipodi:docname="git.svg"
   width="60"
   height="59.999226"
   inkscape:version="0.92.5 (2060ec1f9f, 2020-04-08)">
  <metadata
     id="metadata10">
    <rdf:RDF>
      <cc:Work
         rdf:about="">
        <dc:format>image/svg+xml</dc:format>
        <dc:type
           rdf:resource="http://purl.org/dc/dcmitype/StillImage" />
        <dc:title></dc:title>
      </cc:Work>
    </rdf:RDF>
  </metadata>
  <defs
     id="defs8" />
  <sodipodi:namedview
     pagecolor="#ffffff"
     bordercolor="#666666"
     borderopacity="1"
     objecttolerance="10"
     gridtolerance="10"
     guidetolerance="10"
     inkscape:pageopacity="0"
     inkscape:pageshadow="2"
     inkscape:window-width="899"
     inkscape:window-height="858"
     id="namedview6"
     showgrid="false"
     borderlayer="true"
     inkscape:showpageshadow="false"
     fit-margin-top="0"
     fit-margin-left="0"
     fit-margin-right="0"
     fit-margin-bottom="0"
     inkscape:zoom="1.84375"
     inkscape:cx="63.11725"
     inkscape:cy="63.117497"
     inkscape:window-x="53"
     inkscape:window-y="27"
     inkscape:window-maximized="0"
     inkscape:current-layer="svg4" />
  <path
     d="M 58.868129,27.32723 32.671403,1.1314552 c -1.507657,-1.50860695 -3.954509,-1.50860695 -5.464543,0 l -5.439352,5.440303 6.900429,6.9004288 c 1.604143,-0.541369 3.44261,-0.178238 4.720696,1.099848 1.284741,1.286166 1.645019,3.140318 1.090342,4.749689 l 6.650421,6.650896 c 1.608896,-0.554677 3.465899,-0.1963 4.750165,1.090817 1.79664,1.795215 1.79664,4.705487 0,6.50165 -1.796641,1.79664 -4.705962,1.79664 -6.503553,0 -1.350807,-1.351756 -1.684944,-3.336141 -1.00051,-5.000647 l -6.201736,-6.201736 -9.5e-4,16.322333 c 0.438228,0.21626 0.851265,0.50525 1.216297,0.86885 1.795689,1.79522 1.795689,4.70454 0,6.50355 -1.796165,1.79522 -4.707388,1.79522 -6.501652,0 -1.795689,-1.79854 -1.795689,-4.70786 0,-6.50355 0.443932,-0.44345 0.957258,-0.77854 1.505281,-1.00288 V 22.077523 C 27.844715,21.853181 27.33234,21.52047 26.887457,21.074161 25.527144,19.714799 25.199661,17.718532 25.897404,16.047371 L 19.094412,9.2443792 1.131812,27.206028 c -1.50908267,1.510033 -1.50908267,3.956886 0,5.465969 l 26.197201,26.19577 c 1.508607,1.50861 3.954509,1.50861 5.465493,0 L 58.868604,32.793674 c 1.508607,-1.509558 1.508607,-3.957837 -4.75e-4,-5.466444 z"
     id="path2"
     inkscape:connector-curvature="0"
     style="fill:#f34f29;stroke-width:0.47530165" />
</svg>
