<?xml version="1.0" encoding="UTF-8" standalone="no"?>
<svg
   xmlns:dc="http://purl.org/dc/elements/1.1/"
   xmlns:cc="http://creativecommons.org/ns#"
   xmlns:rdf="http://www.w3.org/1999/02/22-rdf-syntax-ns#"
   xmlns:svg="http://www.w3.org/2000/svg"
   xmlns="http://www.w3.org/2000/svg"
   xmlns:xlink="http://www.w3.org/1999/xlink"
   xmlns:sodipodi="http://sodipodi.sourceforge.net/DTD/sodipodi-0.dtd"
   xmlns:inkscape="http://www.inkscape.org/namespaces/inkscape"
   width="466"
   height="496"
   viewBox="0 0 466 496"
   version="1.1"
   id="svg186"
   sodipodi:docname="glimpse-logo.svg"
   inkscape:version="0.92.5 (2060ec1f9f, 2020-04-08)">
  <metadata
     id="metadata190">
    <rdf:RDF>
      <cc:Work
         rdf:about="">
        <dc:format>image/svg+xml</dc:format>
        <dc:type
           rdf:resource="http://purl.org/dc/dcmitype/StillImage" />
        <dc:title>logo_hex_full_invert</dc:title>
      </cc:Work>
    </rdf:RDF>
  </metadata>
  <sodipodi:namedview
     pagecolor="#ffffff"
     bordercolor="#666666"
     borderopacity="1"
     objecttolerance="10"
     gridtolerance="10"
     guidetolerance="10"
     inkscape:pageopacity="0"
     inkscape:pageshadow="2"
     inkscape:window-width="1867"
     inkscape:window-height="908"
     id="namedview188"
     showgrid="false"
     inkscape:zoom="0.99989318"
     inkscape:cx="576.2618"
     inkscape:cy="219.59493"
     inkscape:window-x="53"
     inkscape:window-y="27"
     inkscape:window-maximized="1"
     inkscape:current-layer="svg186"
     fit-margin-top="0"
     fit-margin-left="0"
     fit-margin-right="0"
     fit-margin-bottom="0"
     inkscape:showpageshadow="false" />
  <!-- Generator: Sketch 63 (92445) - https://sketch.com -->
  <title
     id="title120">logo_hex_full_invert</title>
  <desc
     id="desc122">Created with Sketch.</desc>
  <defs
     id="defs157">
    <linearGradient
       x1="288.29175"
       y1="42.565006"
       x2="269.56985"
       y2="173.88428"
       id="linearGradient-1"
       gradientTransform="scale(0.84616783,1.1817986)"
       gradientUnits="userSpaceOnUse">
      <stop
         stop-color="#7E56F7"
         offset="0%"
         id="stop124" />
      <stop
         stop-color="#677CF6"
         offset="44.5254486%"
         id="stop126" />
      <stop
         stop-color="#3DB0F0"
         offset="100%"
         id="stop128" />
    </linearGradient>
    <radialGradient
       cx="0.4675985"
       cy="0.44848675"
       fx="0.4675985"
       fy="0.44848675"
       r="0.68312645"
       gradientTransform="translate(0.467598,0.448487),scale(1.000000,0.716000),rotate(-37.126745),scale(1.000000,1.616335),translate(-0.467598,-0.448487)"
       id="radialGradient-2">
      <stop
         stop-color="#D2D3E0"
         stop-opacity="0"
         offset="0%"
         id="stop131" />
      <stop
         stop-color="#E2E3EC"
         stop-opacity="0.245350346"
         offset="42.6885382%"
         id="stop133" />
      <stop
         stop-color="#E7E7EF"
         stop-opacity="0.362185169"
         offset="58.698425%"
         id="stop135" />
      <stop
         stop-color="#FFFFFF"
         offset="100%"
         id="stop137" />
    </radialGradient>
    <path
       d="m 143,14.885348 c 0,-6.3877064 2.53863,-11.245004 7.05733,-13.5036073 4.51871,-2.25860337 10.64744,-1.73246282 17.03775,1.4623906 34.23199,17.1085707 96.57745,48.2708947 130.80944,65.3794647 6.39211,3.194854 12.52004,8.794349 17.03895,15.57016 C 319.46237,90.569566 322,97.965541 322,104.35325 v 130.76053 c 0,6.3881 -2.53763,11.2458 -7.05653,13.5042 -4.51891,2.25861 -10.64684,1.73307 -17.03895,-1.46099 -34.23199,-17.10957 -96.57745,-48.27109 -130.80944,-65.38046 -6.39031,-3.19405 -12.51904,-8.79495 -17.03775,-15.57056 C 145.53863,159.43056 143,152.03538 143,145.64728 Z"
       id="path-3"
       inkscape:connector-curvature="0" />
    <linearGradient
       x1="197.88928"
       y1="68.710915"
       x2="186.24635"
       y2="179.9911"
       id="linearGradient-4"
       gradientTransform="scale(0.84616783,1.1817986)"
       gradientUnits="userSpaceOnUse">
      <stop
         stop-color="#5EE2E7"
         offset="0%"
         id="stop141" />
      <stop
         stop-color="#99E7C4"
         offset="41.5341969%"
         id="stop143" />
      <stop
         stop-color="#E6ED43"
         offset="100%"
         id="stop145" />
    </linearGradient>
    <path
       d="m 72,49.885348 c 0,-6.387706 2.538631,-11.245004 7.057334,-13.503607 4.518703,-2.258604 10.647441,-1.732463 17.037746,1.46239 34.23199,17.108571 96.57745,48.270895 130.80944,65.379469 6.39211,3.19485 12.52004,8.79435 17.03895,15.57016 4.5189,6.77581 7.05653,14.17178 7.05653,20.55949 v 130.76053 c 0,6.38811 -2.53763,11.2458 -7.05653,13.5042 -4.51891,2.25861 -10.64684,1.73307 -17.03895,-1.46099 C 192.67253,265.04742 130.32707,233.8859 96.09508,216.77653 89.704775,213.58248 83.576037,207.98158 79.057334,201.20597 74.538631,194.43056 72,187.03538 72,180.64728 Z"
       id="path-5"
       inkscape:connector-curvature="0" />
    <linearGradient
       x1="118.55675"
       y1="92.947426"
       x2="97.796524"
       y2="240.55122"
       id="linearGradient-6"
       gradientTransform="scale(0.84616783,1.1817986)"
       gradientUnits="userSpaceOnUse">
      <stop
         stop-color="#F458BA"
         offset="0%"
         id="stop149" />
      <stop
         stop-color="#EE767A"
         offset="51.5179513%"
         id="stop151" />
      <stop
         stop-color="#FAD58A"
         offset="100%"
         id="stop153" />
    </linearGradient>
    <path
       d="m 0,85.885348 c 0,-6.387706 2.538631,-11.245004 7.057334,-13.503607 4.518703,-2.258604 10.647441,-1.732463 17.037746,1.46239 34.231993,17.108571 96.57745,48.270899 130.80944,65.379469 6.39211,3.19485 12.52004,8.79435 17.03895,15.57016 4.5189,6.77581 7.05653,14.17178 7.05653,20.55949 v 130.76053 c 0,6.38811 -2.53763,11.2458 -7.05653,13.5042 -4.51891,2.25861 -10.64684,1.73307 -17.03895,-1.46099 C 120.67253,301.04742 58.327073,269.8859 24.09508,252.77653 17.704775,249.58248 11.576037,243.98158 7.057334,237.20597 2.538631,230.43056 0,223.03538 0,216.64728 Z"
       id="path-7"
       inkscape:connector-curvature="0" />
    <radialGradient
       inkscape:collect="always"
       xlink:href="#radialGradient-2"
       id="radialGradient211"
       gradientTransform="scale(0.84616783,1.1817986)"
       cx="267.91391"
       cy="94.873764"
       fx="267.91391"
       fy="94.873764"
       r="144.5099"
       gradientUnits="userSpaceOnUse" />
    <radialGradient
       inkscape:collect="always"
       xlink:href="#radialGradient-2"
       id="radialGradient213"
       gradientTransform="scale(0.84616783,1.1817986)"
       cx="184.0062"
       cy="124.48964"
       fx="184.0062"
       fy="124.48964"
       r="144.5099"
       gradientUnits="userSpaceOnUse" />
    <radialGradient
       inkscape:collect="always"
       xlink:href="#radialGradient-2"
       id="radialGradient215"
       gradientTransform="scale(0.84616783,1.1817986)"
       cx="98.916702"
       cy="154.95168"
       fx="98.916702"
       fy="154.95168"
       r="144.5099"
       gradientUnits="userSpaceOnUse" />
  </defs>
  <g
     id="g415"
     transform="translate(-8.99861,-9.0001052)">
    <path
       d="m 252.75195,11.539129 c -6.76906,-3.385365 -14.73642,-3.385365 -21.50748,0 C 193.08286,30.613355 64.206492,95.029434 22.291048,115.97864 14.144535,120.05109 8.99861,128.37428 8.99861,137.47871 c 0,46.99046 0,192.05234 0,239.0422 0,9.10503 5.145925,17.42862 13.292438,21.50047 41.915444,20.9504 170.791812,85.36688 208.953422,104.44091 6.77106,3.38376 14.73842,3.38376 21.50748,0 38.1616,-19.07403 167.04018,-83.49051 208.95502,-104.44091 8.14572,-4.07185 13.29164,-12.39544 13.29164,-21.50047 0,-46.98986 0,-192.05174 0,-239.0422 0,-9.10443 -5.14592,-17.42762 -13.29164,-21.50007 C 419.79213,95.029434 290.91355,30.613355 252.75195,11.539129 Z"
       id="hexagon"
       inkscape:connector-curvature="0"
       style="fill:#000012;fill-rule:evenodd;stroke:none;stroke-width:1" />
    <g
       id="_logo_src"
       transform="translate(80.99861,97.000105)"
       style="fill:none;fill-rule:evenodd;stroke:none;stroke-width:1">
      <g
         id="root">
        <g
           id="frame_back"
           style="opacity:0.89957682">
          <use
             xlink:href="#path-3"
             id="use162"
             style="fill:url(#linearGradient-1)"
             x="0"
             y="0"
             width="100%"
             height="100%" />
          <use
             xlink:href="#path-3"
             id="use164"
             style="fill:url(#radialGradient211);fill-opacity:0.6"
             x="0"
             y="0"
             width="100%"
             height="100%" />
        </g>
        <g
           id="pic/moon"
           transform="translate(270,90)"
           style="opacity:0.89704237;fill:#ffffff">
          <path
             d="M 0,17.110352 C 0,5.3993418 5.4617672,-1.3871131 12.751199,0.23898357 11.689806,2.9078808 11.093323,6.2402085 11.093323,10.11035 c 0,13.489851 7.247007,28.405571 16.186645,33.315194 1.178536,0.647249 2.327655,1.088281 3.434629,1.335311 -2.638852,6.633117 -8.153033,9.165779 -14.527952,5.664691 C 7.2470079,45.515923 0,30.600202 0,17.110352 Z"
             id="moon"
             inkscape:connector-curvature="0" />
        </g>
        <g
           id="frame_mid"
           style="opacity:0.89957682">
          <use
             xlink:href="#path-5"
             id="use169"
             style="fill:url(#linearGradient-4)"
             x="0"
             y="0"
             width="100%"
             height="100%" />
          <use
             xlink:href="#path-5"
             id="use171"
             style="fill:url(#radialGradient213);fill-opacity:0.6"
             x="0"
             y="0"
             width="100%"
             height="100%" />
        </g>
        <path
           d="m 212.7575,183.5 c 4.89042,0 9.5123,2.23656 12.54694,6.07155 l 25.69554,32.47242 2e-5,48.06981 c 0,6.38811 -2.53763,11.2458 -7.05653,13.5042 -4.51891,2.25861 -10.64684,1.73307 -17.03895,-1.46099 -34.23199,-17.10957 -96.57745,-48.27109 -130.80944,-65.38046 -6.390305,-3.19405 -12.519043,-8.79495 -17.037746,-15.57056 -3.860095,-5.78788 -6.275251,-12.02803 -6.897275,-17.70632 z"
           id="picture_mid"
           inkscape:connector-curvature="0"
           style="opacity:0.89704237;fill:#ffffff" />
        <g
           id="frame_front"
           style="opacity:0.89957682">
          <use
             xlink:href="#path-7"
             id="use175"
             style="fill:url(#linearGradient-6)"
             x="0"
             y="0"
             width="100%"
             height="100%" />
          <use
             xlink:href="#path-7"
             id="use177"
             style="fill:url(#radialGradient215);fill-opacity:0.6"
             x="0"
             y="0"
             width="100%"
             height="100%" />
        </g>
        <path
           d="M 60.683486,185.57782 141.44177,311.42813 C 106.09303,293.7603 54.213015,267.82967 24.09508,252.77653 17.704775,249.58248 11.576037,243.98158 7.057334,237.20597 2.538631,230.43056 0,223.03538 0,216.64728 v -34.67771 l 45.933077,-3.69908 c 5.888815,-0.47427 11.559771,2.33511 14.750409,7.30733 z"
           id="picture_front"
           inkscape:connector-curvature="0"
           style="opacity:0.89704237;fill:#ffffff" />
      </g>
    </g>
  </g>
</svg>
