<?xml version="1.0" encoding="UTF-8" standalone="no"?>
<svg
   xmlns:dc="http://purl.org/dc/elements/1.1/"
   xmlns:cc="http://creativecommons.org/ns#"
   xmlns:rdf="http://www.w3.org/1999/02/22-rdf-syntax-ns#"
   xmlns:svg="http://www.w3.org/2000/svg"
   xmlns="http://www.w3.org/2000/svg"
   xmlns:sodipodi="http://sodipodi.sourceforge.net/DTD/sodipodi-0.dtd"
   xmlns:inkscape="http://www.inkscape.org/namespaces/inkscape"
   viewBox="0 0 26.372433 60"
   version="1.1"
   id="svg4"
   sodipodi:docname="gulp.svg"
   width="26.372433"
   height="60"
   inkscape:version="0.92.5 (2060ec1f9f, 2020-04-08)">
  <metadata
     id="metadata10">
    <rdf:RDF>
      <cc:Work
         rdf:about="">
        <dc:format>image/svg+xml</dc:format>
        <dc:type
           rdf:resource="http://purl.org/dc/dcmitype/StillImage" />
        <dc:title></dc:title>
      </cc:Work>
    </rdf:RDF>
  </metadata>
  <defs
     id="defs8" />
  <sodipodi:namedview
     pagecolor="#ffffff"
     bordercolor="#666666"
     borderopacity="1"
     objecttolerance="10"
     gridtolerance="10"
     guidetolerance="10"
     inkscape:pageopacity="0"
     inkscape:pageshadow="2"
     inkscape:window-width="898"
     inkscape:window-height="890"
     id="namedview6"
     showgrid="false"
     borderlayer="true"
     inkscape:showpageshadow="false"
     fit-margin-top="0"
     fit-margin-left="0"
     fit-margin-right="0"
     fit-margin-bottom="0"
     inkscape:zoom="1.84375"
     inkscape:cx="27.057"
     inkscape:cy="60.472064"
     inkscape:window-x="53"
     inkscape:window-y="27"
     inkscape:window-maximized="0"
     inkscape:current-layer="svg4" />
  <path
     d="m 0.010722,16.090063 c 0.427413,4.499294 0.851415,8.973245 1.285164,13.547592 0.707158,-1.215959 1.218884,-2.382208 1.99086,-3.337431 0.718854,-0.889917 1.624853,-1.711116 2.610779,-2.279863 1.287114,-0.742734 2.974837,-0.04337 3.392016,1.273955 0.112092,0.353335 -0.155468,0.827048 -0.24904,1.245689 C 8.725667,26.373815 8.319697,26.282192 8.114032,26.027791 7.240198,24.947317 6.713851,24.819629 5.747419,25.753408 c -1.802739,1.742794 -2.816445,3.92616 -3.203408,6.38001 -0.07456,0.474688 0.222236,1.00737 0.347487,1.513249 0.49272,-0.169601 1.064878,-0.231983 1.46305,-0.528297 1.294425,-0.963508 2.096617,-2.274015 2.539138,-3.840385 0.09601,-0.339202 0.616509,-0.558026 0.942064,-0.832409 0.155955,0.320682 0.511727,0.698385 0.437161,0.952299 -0.685713,2.358815 -1.42991,4.702522 -2.210658,7.032093 -0.07895,0.23588 -0.512214,0.35334 -0.781723,0.52586 -0.108681,-0.30996 -0.337252,-0.63454 -0.300701,-0.92647 0.08188,-0.66183 0.294852,-1.30758 0.443497,-1.913853 L 1.89485,35.739868 c 0.19738,2.25257 0.402071,4.77953 0.644775,7.30307 0.186171,1.92702 0.501492,2.42607 2.399266,2.79159 2.214557,0.42644 4.47054,0.69887 6.721649,0.86457 3.326222,0.24515 6.623202,-0.058 9.859263,-0.92793 1.20475,-0.3236 1.685286,-1.11605 1.771548,-2.29887 0.07895,-1.08924 0.255376,-2.17167 0.377703,-3.25799 0.240268,-2.13999 0.473713,-4.28047 0.719341,-6.510133 -0.812426,0.51465 -1.451353,1.090713 -2.198474,1.334873 -0.543892,0.17789 -1.230093,-0.0824 -1.853425,-0.14767 0.119403,-0.572157 0.112093,-1.216932 0.387938,-1.699417 0.449344,-0.788546 1.083885,-1.47231 1.639474,-2.200424 l -0.239293,-0.288029 c -0.398172,0.235395 -0.892841,0.389887 -1.175996,0.723728 -0.576058,0.679378 -1.139932,1.406517 -1.525432,2.20286 -0.645263,1.332922 -1.137008,2.739932 -1.714528,4.106482 -0.250989,0.59263 -0.467376,1.49912 -1.30807,1.15309 -0.899176,-0.37088 -0.266585,-1.16284 -0.05556,-1.72622 0.33579,-0.89869 0.779286,-1.75742 1.079499,-2.41828 -0.850928,0.10138 -1.713552,0.2237 -2.580076,0.29924 -0.366493,0.0312 -0.802192,-0.1696 -1.101917,-0.0341 -0.996649,0.45032 -1.628265,0.26951 -1.835393,-0.833873 -0.461528,0.299723 -0.85239,0.705693 -1.312943,0.814863 -0.559001,0.13305 -1.31733,0.22029 -1.726712,-0.059 -0.327992,-0.2237 -0.447395,-1.064391 -0.335302,-1.557597 0.222723,-0.980566 0.638927,-1.923117 1.034174,-2.855434 0.244654,-0.57752 0.490771,-1.499602 1.316356,-1.098019 0.815838,0.396223 0.07505,1.064879 -0.113067,1.60146 -0.291928,0.829484 -0.589217,1.657507 -0.883581,2.486016 l 0.467864,0.282668 c 0.445446,-0.386963 1.000547,-0.702284 1.312456,-1.176971 0.510752,-0.775875 0.81925,-1.682361 1.30271,-2.478705 0.200304,-0.329942 0.631616,-0.519037 0.958634,-0.771976 0.06628,0.420103 0.22516,0.851903 0.172525,1.257385 -0.05215,0.409868 -0.340176,0.784647 -0.478099,1.190129 -0.207127,0.607249 -0.374291,1.228144 -0.58483,1.934326 0.995673,0.03801 1.422112,-0.381114 1.703318,-1.120437 0.889917,-2.335909 1.78958,-4.669382 2.767709,-6.969227 0.167164,-0.393785 0.735424,-0.616021 1.118975,-0.918183 0.04435,0.474687 0.255863,1.012731 0.10527,1.412852 -0.801705,2.119522 -1.701856,4.201031 -2.547911,6.303983 -0.142796,0.354309 -0.188608,0.747608 -0.278769,1.122874 1.49083,-0.670118 2.735056,-1.410903 3.189274,-2.995306 0.111118,-0.385013 0.566311,-0.671093 0.863112,-1.002984 l 0.6901,0.731038 c 0.209564,-0.176424 0.401583,-0.377215 0.62918,-0.52391 0.716417,-0.461529 1.487905,-0.868473 2.243311,-0.153518 0.781723,0.739323 0.19007,1.459639 -0.218337,2.099053 -0.444471,0.69741 -0.98885,1.330489 -1.489855,1.991347 1.126773,-0.726164 2.665364,-1.05172 2.870055,-2.621014 0.499055,-3.833075 0.937678,-7.673948 1.382636,-11.513845 0.132074,-1.136521 0.202741,-2.280351 0.305574,-3.464632 -8.874799,2.148764 -17.559041,2.161922 -26.360248,-0.03363 z m 3.809194,29.908705 c 0.427414,1.12921 1.076575,2.23844 1.246663,3.41687 0.359183,2.50844 0.450319,5.05488 0.704721,7.58038 0.03704,0.36795 0.275357,0.87334 0.572646,1.03514 4.376479,2.37831 8.795359,2.79062 13.260538,0.18959 0.666219,-0.38794 0.789521,-0.90015 0.875783,-1.62047 0.417667,-3.49972 -0.512214,-7.21193 1.725249,-10.50745 -6.265481,1.55419 -12.380368,1.60244 -18.3856,-0.0941 z m 15.103728,-29.2805 c 2.125858,-0.205178 4.225886,-0.704233 6.328351,-1.116538 0.396222,-0.07749 0.748095,-0.379165 1.120437,-0.57752 -0.49077,-0.431312 -0.915259,-0.638927 -1.358756,-0.691074 -2.207734,-0.260737 -4.423266,-0.461529 -6.629538,-0.734937 -0.333353,-0.04143 -0.928418,-0.452756 -0.903562,-0.527809 0.6438,-1.939687 0.612122,-4.1352366 2.073223,-5.7698376 1.846601,-2.0664 3.71221,-4.114768 5.563685,-6.164111 -1.377276,-1.48156896 -1.395795,-1.48351896 -2.64392,-0.18665796 -0.705696,0.73298696 -1.350471,1.53517996 -2.116111,2.19896196 -2.833015,2.455312 -4.8229,5.36338 -5.210837,9.1974296 -0.08919,0.879682 -0.572159,1.19744 -1.495704,1.211086 -3.048915,0.04435 -6.101241,0.128175 -9.143333,0.328479 -1.5074,0.09893 -2.99628,0.485897 -4.493933,0.742248 L 0,15.187962 c 0.93719,0.289004 1.856349,0.668656 2.813521,0.852391 5.333651,1.022478 10.717501,1.197927 16.110123,0.677915 z m -1.703805,-1.339261 c -1.207187,0.974717 -2.20481,0.974717 -3.168318,0 z"
     id="path2"
     inkscape:connector-curvature="0"
     style="clip-rule:evenodd;fill:#eb4a4b;fill-rule:evenodd;stroke-width:0.48735851" />
</svg>
