<?xml version="1.0" encoding="UTF-8" standalone="no"?>
<svg
   xmlns:dc="http://purl.org/dc/elements/1.1/"
   xmlns:cc="http://creativecommons.org/ns#"
   xmlns:rdf="http://www.w3.org/1999/02/22-rdf-syntax-ns#"
   xmlns:svg="http://www.w3.org/2000/svg"
   xmlns="http://www.w3.org/2000/svg"
   xmlns:sodipodi="http://sodipodi.sourceforge.net/DTD/sodipodi-0.dtd"
   xmlns:inkscape="http://www.inkscape.org/namespaces/inkscape"
   viewBox="0 0 60 68.045776"
   version="1.1"
   id="svg10"
   sodipodi:docname="html5.svg"
   width="60"
   height="68.045776"
   inkscape:version="0.92.5 (2060ec1f9f, 2020-04-08)">
  <metadata
     id="metadata16">
    <rdf:RDF>
      <cc:Work
         rdf:about="">
        <dc:format>image/svg+xml</dc:format>
        <dc:type
           rdf:resource="http://purl.org/dc/dcmitype/StillImage" />
        <dc:title></dc:title>
      </cc:Work>
    </rdf:RDF>
  </metadata>
  <defs
     id="defs14" />
  <sodipodi:namedview
     pagecolor="#ffffff"
     bordercolor="#666666"
     borderopacity="1"
     objecttolerance="10"
     gridtolerance="10"
     guidetolerance="10"
     inkscape:pageopacity="0"
     inkscape:pageshadow="2"
     inkscape:window-width="910"
     inkscape:window-height="875"
     id="namedview12"
     showgrid="false"
     borderlayer="true"
     inkscape:showpageshadow="false"
     fit-margin-top="0"
     fit-margin-left="0"
     fit-margin-right="0"
     fit-margin-bottom="0"
     inkscape:zoom="1.84375"
     inkscape:cx="54.968"
     inkscape:cy="62.339"
     inkscape:window-x="53"
     inkscape:window-y="27"
     inkscape:window-maximized="0"
     inkscape:current-layer="svg10" />
  <g
     id="g22"
     transform="matrix(0.54577209,0,0,0.54577209,-4.9294135,-0.90652744)">
    <path
       id="path2"
       d="M 19.037,113.876 9.032,1.661 h 109.936 l -10.016,112.198 -45.019,12.48 z"
       inkscape:connector-curvature="0"
       style="fill:#e44d26" />
    <path
       id="path4"
       d="m 64,116.8 36.378,-10.086 8.559,-95.878 H 64 Z"
       inkscape:connector-curvature="0"
       style="fill:#f16529" />
    <path
       id="path6"
       d="M 64,52.455 H 45.788 L 44.53,38.361 H 64 V 24.599 H 29.489 l 0.33,3.692 3.382,37.927 H 64 Z M 64,88.198 63.939,88.215 48.612,84.075 47.633,73.1 H 33.816 l 1.928,21.609 28.193,7.826 0.063,-0.017 z"
       inkscape:connector-curvature="0"
       style="fill:#ebebeb" />
    <path
       id="path8"
       d="m 63.952,52.455 v 13.763 h 16.947 l -1.597,17.849 -15.35,4.143 v 14.319 l 28.215,-7.82 0.207,-2.325 3.234,-36.233 0.335,-3.696 h -3.708 z m 0,-27.856 v 13.762 h 33.244 l 0.276,-3.092 0.628,-6.978 0.329,-3.692 z"
       inkscape:connector-curvature="0"
       style="fill:#ffffff" />
  </g>
</svg>
