<?xml version="1.0" encoding="UTF-8" standalone="no"?>
<!-- Created with Inkscape (http://www.inkscape.org/) -->

<svg
   version="1.1"
   id="svg1"
   width="299.73334"
   height="393.60001"
   viewBox="0 0 299.73334 393.60001"
   sodipodi:docname="penpot-light.svg"
   inkscape:version="1.3.2 (091e20ef0f, 2023-11-25)"
   xmlns:inkscape="http://www.inkscape.org/namespaces/inkscape"
   xmlns:sodipodi="http://sodipodi.sourceforge.net/DTD/sodipodi-0.dtd"
   xmlns="http://www.w3.org/2000/svg"
   xmlns:svg="http://www.w3.org/2000/svg">
  <defs
     id="defs1" />
  <sodipodi:namedview
     id="namedview1"
     pagecolor="#505050"
     bordercolor="#eeeeee"
     borderopacity="1"
     inkscape:showpageshadow="0"
     inkscape:pageopacity="0"
     inkscape:pagecheckerboard="0"
     inkscape:deskcolor="#505050"
     inkscape:zoom="2.1468496"
     inkscape:cx="149.98722"
     inkscape:cy="196.8"
     inkscape:window-width="1920"
     inkscape:window-height="1043"
     inkscape:window-x="1920"
     inkscape:window-y="0"
     inkscape:window-maximized="1"
     inkscape:current-layer="g1" />
  <g
     inkscape:groupmode="layer"
     inkscape:label="Image"
     id="g1">
    <path
       style="fill:#ffffff"
       d="M 75.8082,359.23382 1.6748595,324.16 1.4030795,216.81617 1.1312995,109.47234 19.26975,100.81736 37.4082,92.162379 V 75.703686 59.244999 L 57.81999,30.513028 C 69.04648,14.710445 78.61007,1.9192887 79.07242,2.0882377 c 0.46235,0.168949 9.33863,12.3071793 19.72505,26.9738463 10.38643,14.666667 19.48102,27.307711 20.21021,28.09121 1.07985,1.160279 4.03528,-2.401478 15.93152,-19.2 8.03316,-11.343499 14.93497,-20.388016 15.33737,-20.098927 0.40239,0.289089 7.12907,9.52909 14.94816,20.533334 7.8191,11.004244 14.5391,19.988046 14.93334,19.964005 0.39424,-0.02404 9.83187,-12.948969 20.97252,-28.722059 11.14064,-15.773091 20.33897,-28.5934203 20.44073,-28.4896213 0.10175,0.103799 9.34668,13.1133273 20.54428,28.9100643 l 20.35927,28.721341 0.003,16.611995 0.003,16.611983 18.13492,8.514931 18.13493,8.51493 -0.27171,107.67895 -0.27171,107.67896 -74.07331,35.00612 c -40.74032,19.25336 -74.10032,34.98637 -74.13333,34.96223 -0.033,-0.0241 -33.42003,-15.82711 -74.19336,-35.11771 z m 66.13333,-76.29603 c 0,-82.66033 -0.11308,-88.05926 -1.86666,-89.11835 -1.93026,-1.16578 -121.03537,-57.55736 -121.56738,-57.55736 -0.16461,0 -0.2993,39.77627 -0.2993,88.39171 v 88.39171 l 61.06667,28.90733 c 33.58667,15.89904 61.42667,28.92277 61.86667,28.94163 0.44,0.0189 0.8,-39.56164 0.8,-87.95667 z m 78.93334,59.17145 c 32.56,-15.37842 59.56279,-28.292 60.0062,-28.69684 0.44342,-0.40484 0.68342,-40.38774 0.53334,-88.8509 l -0.27288,-88.11483 -21.33333,10.07679 c -11.73333,5.54224 -39.21333,18.53841 -61.06667,28.88038 l -39.73333,18.80359 v 88.47478 c 0,70.35858 0.27301,88.3635 1.33333,87.93129 0.73334,-0.29892 27.97334,-13.12584 60.53334,-28.50426 z m -76.8,-211.75114 V 83.920779 l -10.93334,0.30398 -10.93333,0.30399 -0.27932,40.774941 -0.27932,40.77495 10.94599,5.26402 c 6.02029,2.89521 11.06598,5.30648 11.21265,5.35838 0.14667,0.0519 0.26667,-20.80242 0.26667,-46.34294 z m 33.6,-4.84639 V 84.528749 l -10.93334,-0.30399 -10.93333,-0.30398 v 46.382301 46.38229 l 10.93333,-5.09535 10.93334,-5.09534 z M 106.48644,113.59541 106.2082,68.528746 H 95.54153 84.87486 l -0.252,40.000004 -0.25201,40 10.38534,4.97341 c 5.71194,2.73538 10.75055,5.01538 11.19692,5.06667 0.44636,0.0513 0.68636,-20.18675 0.53333,-44.97342 z m 98.76744,39.84419 10.28765,-4.68915 V 108.33562 67.920787 l -10.93333,0.303982 -10.93333,0.303977 -0.27832,45.159434 c -0.15502,25.1532 0.13103,45.00021 0.64568,44.8 0.50819,-0.19769 5.55343,-2.46955 11.21165,-5.04858 z M 73.42202,105.59541 73.14153,68.528746 62.2082,68.224769 51.27486,67.920787 v 32.376793 32.3768 l 10.35316,4.99385 c 5.69423,2.74662 10.74045,4.99385 11.21382,4.99385 0.47337,0 0.73445,-16.68 0.58018,-37.06667 z m 165.58618,31.92165 10.13333,-4.98831 v -32 -32.000004 L 238.2082,68.224769 227.27487,67.920787 v 37.370643 c 0,20.55386 0.36,37.33539 0.8,37.2923 0.44,-0.0431 5.36,-2.3231 10.93333,-5.06667 z m -201.6,-19.92165 c 0,-4.4 -0.32712,-8 -0.72692,-8 -1.54717,0 -17.40642,6.8582 -17.40642,7.52727 0,0.66723 15.61865,8.23312 17.33334,8.3965 0.44,0.0419 0.8,-3.52377 0.8,-7.92377 z m 235.95327,3.62276 8.70591,-4.37725 -8.46293,-3.57018 c -4.6546,-1.9636 -9.06292,-3.59383 -9.79625,-3.62275 -0.95282,-0.0376 -1.33333,2.23049 -1.33333,7.94742 0,4.73804 0.44458,8 1.09034,8 0.59969,0 5.008,-1.96976 9.79626,-4.37724 z M 172.21099,71.995416 c -0.43438,-0.73333 -3.89876,-5.773331 -7.69863,-11.199998 l -6.90884,-9.866667 h -7.66464 -7.66464 l -6.93049,9.866667 c -3.81177,5.426667 -7.27495,10.466668 -7.69597,11.199998 -0.60233,1.04916 4.14922,1.33333 22.29375,1.33333 18.1575,0 22.89135,-0.28342 22.26946,-1.33333 z M 101.4082,56.654564 c 0,-0.370803 -3.38175,-5.410803 -7.515,-11.2 l -7.51499,-10.525813 -7.68501,0.0132 c -7.47469,0.01284 -7.74781,0.107714 -9.97991,3.466666 -1.2622,1.899405 -4.77491,6.933463 -7.80603,11.186797 l -5.51113,7.733333 h 23.00604 c 12.65331,0 23.00603,-0.303384 23.00603,-0.674187 z m 142.27168,-0.659146 c -0.43315,-0.733333 -3.92569,-5.773334 -7.76119,-11.2 l -6.97365,-9.866667 h -7.53684 -7.53685 l -6.97364,9.866667 c -3.8355,5.426666 -7.32804,10.466667 -7.76119,11.2 -0.6201,1.049836 4.11537,1.333333 22.27168,1.333333 18.15631,0 22.89178,-0.283497 22.27168,-1.333333 z"
       id="path1" />
  </g>
</svg>
