<?xml version="1.0" encoding="UTF-8" standalone="no"?>
<svg
   xmlns:dc="http://purl.org/dc/elements/1.1/"
   xmlns:cc="http://creativecommons.org/ns#"
   xmlns:rdf="http://www.w3.org/1999/02/22-rdf-syntax-ns#"
   xmlns:svg="http://www.w3.org/2000/svg"
   xmlns="http://www.w3.org/2000/svg"
   xmlns:sodipodi="http://sodipodi.sourceforge.net/DTD/sodipodi-0.dtd"
   xmlns:inkscape="http://www.inkscape.org/namespaces/inkscape"
   viewBox="0 0 59.999996 44.874077"
   version="1.1"
   id="svg4"
   sodipodi:docname="sass.svg"
   width="59.999996"
   height="44.874077"
   inkscape:version="0.92.5 (2060ec1f9f, 2020-04-08)">
  <metadata
     id="metadata10">
    <rdf:RDF>
      <cc:Work
         rdf:about="">
        <dc:format>image/svg+xml</dc:format>
        <dc:type
           rdf:resource="http://purl.org/dc/dcmitype/StillImage" />
        <dc:title></dc:title>
      </cc:Work>
    </rdf:RDF>
  </metadata>
  <defs
     id="defs8" />
  <sodipodi:namedview
     pagecolor="#ffffff"
     bordercolor="#666666"
     borderopacity="1"
     objecttolerance="10"
     gridtolerance="10"
     guidetolerance="10"
     inkscape:pageopacity="0"
     inkscape:pageshadow="2"
     inkscape:window-width="900"
     inkscape:window-height="892"
     id="namedview6"
     showgrid="false"
     borderlayer="true"
     inkscape:showpageshadow="false"
     fit-margin-top="0"
     fit-margin-left="0"
     fit-margin-right="0"
     fit-margin-bottom="0"
     inkscape:zoom="1.84375"
     inkscape:cx="62.781"
     inkscape:cy="45.817254"
     inkscape:window-x="53"
     inkscape:window-y="27"
     inkscape:window-maximized="0"
     inkscape:current-layer="svg4" />
  <path
     d="m 0,18.711949 c 0,0.335951 0.098922,0.557688 0.1543559,0.773213 0.3612788,1.401628 1.1378371,2.604457 2.0591936,3.701674 1.3122641,1.56363 2.9193814,2.822371 4.5656849,4.006085 1.4279115,1.02649 2.8849736,2.030043 4.3186196,3.048887 0.24611,0.174905 0.478838,0.376093 0.745974,0.590662 -0.229861,0.12425 -0.421014,0.233685 -0.619813,0.334518 -1.891935,0.959587 -3.7121874,2.035299 -5.3900312,3.33848 -1.0111984,0.78564 -1.988945,1.6205 -2.6794845,2.71151 -1.1110758,1.75478 -1.5043727,3.62425 -0.6762031,5.62037 0.2418083,0.58301 0.6107332,1.0867 1.1311467,1.45897 0.1686924,0.12043 0.3579337,0.2399 0.555299,0.28673 0.5055991,0.11899 1.020756,0.19689 1.5325676,0.29103 l 1.4494162,-9.6e-4 c 1.6028163,-0.14288 3.0617903,-0.69197 4.3802663,-1.60186 2.060628,-1.42217 3.448875,-3.32892 4.04575,-5.77616 0.433916,-1.77867 0.451598,-3.559262 -0.05974,-5.329815 -0.04731,-0.164391 -0.107045,-0.325437 -0.16917,-0.484572 -0.06213,-0.159135 -0.13524,-0.313968 -0.221259,-0.51229 l 3.285917,-1.889545 0.04922,0.04205 c -0.05973,0.195453 -0.123293,0.390429 -0.177294,0.587794 -0.390429,1.426 -0.649919,2.87685 -0.556732,4.356858 0.0994,1.57701 0.539528,3.05319 1.462796,4.37071 0.746452,1.06567 2.525129,1.10534 3.318413,0.0358 0.281473,-0.37992 0.554343,-0.77704 0.759355,-1.20092 0.535706,-1.1063 1.031747,-2.23219 1.543559,-3.35043 l 0.08936,-0.204539 c -0.0368,0.529499 -0.07981,0.994479 -0.0994,1.459929 -0.03058,0.72686 0.01195,1.44942 0.260446,2.14092 0.212657,0.59161 0.574414,1.03366 1.252051,1.11155 0.463545,0.053 0.832948,-0.15913 1.173678,-0.42818 0.532361,-0.42006 0.964844,-0.93904 1.285981,-1.52875 0.908453,-1.66828 1.841279,-3.326538 2.66467,-5.036878 0.890772,-1.849881 1.66972,-3.753763 2.496933,-5.635185 l 0.136684,-0.333517 c 0.195453,0.767956 0.33165,1.520143 0.582538,2.232187 0.291508,0.826258 0.652309,1.632923 1.045128,2.417127 0.185896,0.370359 0.164391,0.610733 -0.09319,0.921357 -1.078102,1.299839 -2.137566,2.615448 -3.197987,3.929619 -0.23464,0.29008 -0.468324,0.58541 -0.663778,0.90225 -0.118037,0.19258 -0.196409,0.42722 -0.229383,0.65183 -0.06356,0.42913 0.201666,0.84298 0.660911,0.9419 0.41958,0.0903 0.8664,0.12377 1.294104,0.0922 1.480001,-0.10895 2.823805,-0.62841 4.01182,-1.50867 1.539258,-1.14023 2.033388,-2.69621 1.66064,-4.540357 -0.100833,-0.500343 -0.279083,-0.986827 -0.452554,-1.469009 -0.07789,-0.217437 -0.08315,-0.369881 0.05878,-0.572503 1.230546,-1.757172 2.281887,-3.62139 3.259633,-5.528617 0.03871,-0.07503 0.07837,-0.150055 0.146232,-0.230339 0.316836,1.648693 0.793762,3.23765 1.648215,4.67942 -0.435828,0.420059 -0.867355,0.800931 -1.257785,1.220511 -0.85971,0.924224 -1.605206,1.927776 -1.994202,3.151632 -0.167258,0.527582 -0.295809,1.063762 -0.221259,1.627192 0.115647,0.875 0.83247,1.44368 1.693136,1.2444 1.841757,-0.42627 3.431671,-1.2941 4.593402,-2.83145 0.781815,-1.035092 0.853019,-2.189655 0.52567,-3.399175 -0.08984,-0.328783 -0.196409,-0.652309 -0.311101,-1.029358 0.454466,-0.140975 0.897462,-0.310145 1.355751,-0.414801 2.379375,-0.542874 4.732944,-0.448254 7.025822,0.410978 1.338547,0.501776 2.419994,1.341415 3.061312,2.662281 0.783249,1.614763 0.350288,3.146855 -1.171767,4.167605 -0.141931,0.0951 -0.304411,0.17013 -0.421969,0.28912 -0.07216,0.0731 -0.115648,0.21935 -0.09797,0.32018 0.01004,0.0588 0.165347,0.13238 0.254711,0.13142 0.500342,-0.004 0.906064,-0.26618 1.295538,-0.5357 0.975835,-0.67525 1.687879,-1.58371 1.841279,-2.779844 l 0.03011,-0.08984 -0.0368,-0.778948 c -0.01481,-0.04492 0.01099,-0.08936 0.0076,-0.123293 -0.207401,-1.74188 -1.137837,-3.092853 -2.491199,-4.151839 -1.567453,-1.225768 -3.41829,-1.730411 -5.375695,-1.810217 -1.59517,-0.06499 -3.163101,0.172037 -4.666518,0.718256 -0.42866,0.155312 -0.853497,0.339297 -1.284547,0.512768 -0.05782,-0.104656 -0.119948,-0.205012 -0.171081,-0.308712 -0.442519,-0.906064 -0.978703,-1.771987 -1.097218,-2.810902 -0.08411,-0.73785 -0.187329,-1.474744 -0.01195,-2.20447 0.168693,-0.702009 0.388519,-1.39207 0.595441,-2.084521 0.106568,-0.3565 0.03154,-0.556255 -0.308711,-0.716823 -0.118515,-0.05591 -0.247543,-0.104657 -0.375616,-0.123294 -0.836293,-0.121382 -1.661118,-0.05209 -2.471128,0.183507 -0.286729,0.08363 -0.495085,0.244197 -0.558644,0.561511 -0.03632,0.182073 -0.11039,0.3565 -0.162002,0.536184 -0.211701,0.746929 -0.361756,1.508195 -0.70392,2.219762 -0.85732,1.784889 -1.836023,3.502397 -2.837663,5.20748 -0.10848,0.183985 -0.222693,0.364624 -0.359368,0.587795 -0.351721,-0.735938 -0.726858,-1.396371 -0.840594,-2.17054 -0.12855,-0.87548 -0.229861,-1.749526 -0.01195,-2.618316 0.162002,-0.648008 0.373704,-1.284069 0.568679,-1.923475 0.09223,-0.303933 0.0497,-0.463545 -0.22556,-0.623636 -0.139064,-0.08076 -0.296287,-0.152444 -0.453032,-0.17586 -0.867356,-0.128551 -1.721809,-0.06117 -2.55858,0.209312 -0.25949,0.08411 -0.395687,0.251844 -0.475015,0.519458 -0.233207,0.789461 -0.432006,1.598037 -0.759355,2.34879 -1.325644,3.039329 -2.68952,6.062889 -4.051961,9.085971 -0.28434,0.631282 -0.617424,1.240576 -0.938083,1.855136 -0.08124,0.15579 -0.199755,0.29294 -0.301066,0.43917 -0.08124,-0.0961 -0.11278,-0.162 -0.112302,-0.22795 0.0024,-0.38851 -0.04397,-0.7885 0.03011,-1.164115 0.224126,-1.136403 0.482183,-2.266594 0.754098,-3.392484 0.224604,-0.929959 0.486006,-1.851315 0.734982,-2.775061 0.08363,-0.30919 0.08506,-0.598309 -0.137152,-0.858277 -0.373226,-0.43535 -1.153129,-0.530926 -1.615719,-0.195453 l -0.204534,0.115647 0.03966,-0.329738 c 0.09749,-0.706788 0.117081,-1.411186 -0.07694,-2.10746 -0.241809,-0.867834 -0.861144,-1.367221 -1.761474,-1.339503 -0.41958,0.0129 -0.860187,0.08458 -1.248705,0.237507 -1.633879,0.640362 -2.890231,1.774376 -3.959731,3.138729 -0.09701,0.123771 -0.225082,0.236552 -0.361756,0.312535 -1.382513,0.766523 -2.769327,1.523488 -4.155663,2.28332 l -1.543081,0.845374 C 13.61247,29.238256 13.236376,28.828711 12.809628,28.481291 11.506443,27.418481 10.182232,26.381955 8.869968,25.331093 7.7068034,24.3997 6.5799576,23.4296 5.7178585,22.196186 5.0765408,21.278653 4.6631728,20.274623 4.6235086,19.140131 4.573331,17.694538 4.9833538,16.373672 5.7192921,15.144081 6.6607197,13.570894 7.9447887,12.308329 9.356452,11.164758 c 1.493382,-1.209042 3.108623,-2.235532 4.782644,-3.172659 2.342099,-1.31083 4.751103,-2.471128 7.334055,-3.237173 2.648422,-0.785638 5.335553,-1.235325 8.107269,-0.921834 1.089571,0.123293 2.147601,0.372748 3.119136,0.905586 0.744062,0.407633 1.354317,0.941428 1.638179,1.77581 0.280039,0.821001 0.271437,1.652994 0.07742,2.486898 -0.394253,1.688835 -1.318954,3.080905 -2.482597,4.324832 -1.908661,2.039123 -4.236902,3.42737 -6.858085,4.344426 -1.512497,0.529015 -3.068481,0.861143 -4.666518,0.995428 -1.30414,0.109435 -2.581041,-0.0062 -3.815888,-0.459723 -0.817656,-0.300587 -1.5297,-0.76031 -2.102203,-1.427433 -0.102267,-0.119471 -0.233206,-0.248977 -0.423881,-0.137152 -0.186852,0.109912 -0.219826,0.287685 -0.157224,0.467846 0.104657,0.299154 0.201189,0.610733 0.364146,0.878347 0.409545,0.671425 1.006898,1.158386 1.664464,1.576055 1.263042,0.80332 2.674705,1.073323 4.138458,1.135926 2.221196,0.09605 4.388391,-0.235596 6.525001,-0.831515 3.050321,-0.85063 5.702566,-2.353091 7.829619,-4.723386 1.771031,-1.973653 3.035985,-4.201061 3.306944,-6.890581 C 37.869764,6.941714 37.728791,5.655734 37.114233,4.458161 36.447587,3.160712 35.387645,2.195868 34.120302,1.531134 32.274721,0.563423 30.282909,0 28.227061,0 H 26.167389 C 23.677624,0 21.270532,0.713478 18.930822,1.564586 17.159791,2.209249 15.423168,2.970037 13.7372,3.812065 10.065632,5.646654 6.6463862,7.85877 3.8378736,10.900489 2.438635,12.415853 1.2539654,14.087962 0.5725057,16.056836 0.3732289,16.633162 0.1839876,17.251063 0.0415787,17.846982 M 13.345333,35.056948 c -0.159134,2.13088 -1.124934,3.85842 -2.703378,5.25766 -0.887905,0.78659 -1.9062715,1.34667 -3.0923747,1.54356 -0.4300939,0.0712 -0.8702232,0.0884 -1.2874142,-0.0898 -0.5949631,-0.25423 -0.7282922,-0.78229 -0.7397614,-1.34476 -0.017682,-0.8965 0.2962869,-1.70699 0.7268586,-2.47829 0.5619892,-1.00547 1.3858578,-1.77199 2.2656387,-2.48786 1.385858,-1.12827 2.889275,-2.083083 4.429011,-2.984369 l 0.116125,-0.04779 c 0.237985,0.879303 0.351243,1.747619 0.285295,2.631699 z M 25.36789,25.796072 c -0.112303,0.680504 -0.2528,1.361486 -0.451599,2.020963 -0.687194,2.282842 -1.569842,4.494958 -2.524173,6.677443 -0.176338,0.40381 -0.432961,0.77226 -0.656132,1.15504 -0.03441,0.0593 -0.08554,0.11039 -0.135241,0.15962 -0.276215,0.27287 -0.538095,0.25853 -0.677636,-0.0984 -0.16248,-0.4148 -0.262357,-0.85875 -0.348376,-1.29793 -0.05782,-0.29485 -0.04397,-0.604516 -0.06212,-0.906538 0.01864,-2.147601 0.673814,-4.099272 1.785367,-5.916179 0.458289,-0.749319 0.957198,-1.463275 1.71942,-1.937334 0.234162,-0.145754 0.496997,-0.262835 0.762222,-0.337385 0.406199,-0.114213 0.655654,0.07359 0.588273,0.48075 z m 8.202367,10.450326 2.948054,-3.442186 c 0.122816,1.278336 -2.050114,3.830226 -2.948054,3.442186 z m 9.415709,-2.316296 c -0.208356,0.119466 -0.43535,0.205486 -0.648964,0.315876 -0.195453,0.10131 -0.259967,-9.5e-4 -0.265702,-0.16917 -0.0038,-0.11421 0.0129,-0.233681 0.04444,-0.344549 0.398076,-1.404018 1.130669,-2.602546 2.220718,-3.577425 l 0.07646,-0.03919 c 0.518502,1.450372 -0.08076,3.043153 -1.426956,3.814455 z"
     id="path2"
     inkscape:connector-curvature="0"
     style="clip-rule:evenodd;fill:#cb6699;fill-rule:evenodd;stroke-width:0.47788203" />
</svg>
