<?xml version="1.0" encoding="UTF-8" standalone="no"?>
<svg
   xmlns:dc="http://purl.org/dc/elements/1.1/"
   xmlns:cc="http://creativecommons.org/ns#"
   xmlns:rdf="http://www.w3.org/1999/02/22-rdf-syntax-ns#"
   xmlns:svg="http://www.w3.org/2000/svg"
   xmlns="http://www.w3.org/2000/svg"
   xmlns:sodipodi="http://sodipodi.sourceforge.net/DTD/sodipodi-0.dtd"
   xmlns:inkscape="http://www.inkscape.org/namespaces/inkscape"
   id="twitter"
   viewBox="0 0 60.000001 48.751196"
   version="1.1"
   sodipodi:docname="twitter.svg"
   width="60"
   height="48.751194"
   inkscape:version="0.92.5 (2060ec1f9f, 2020-04-08)">
  <metadata
     id="metadata12">
    <rdf:RDF>
      <cc:Work
         rdf:about="">
        <dc:format>image/svg+xml</dc:format>
        <dc:type
           rdf:resource="http://purl.org/dc/dcmitype/StillImage" />
        <dc:title>twitter-original</dc:title>
      </cc:Work>
    </rdf:RDF>
  </metadata>
  <sodipodi:namedview
     pagecolor="#ffffff"
     bordercolor="#666666"
     borderopacity="1"
     objecttolerance="10"
     gridtolerance="10"
     guidetolerance="10"
     inkscape:pageopacity="0"
     inkscape:pageshadow="2"
     inkscape:window-width="916"
     inkscape:window-height="916"
     id="namedview10"
     showgrid="false"
     borderlayer="true"
     inkscape:showpageshadow="false"
     fit-margin-top="0"
     fit-margin-left="0"
     fit-margin-right="0"
     fit-margin-bottom="0"
     inkscape:zoom="2.3004192"
     inkscape:cx="63.119999"
     inkscape:cy="51.305002"
     inkscape:window-x="53"
     inkscape:window-y="27"
     inkscape:window-maximized="0"
     inkscape:current-layer="twitter" />
  <defs
     id="defs4">
    <style
       id="style2">.cls-1{fill:#1da1f2;}</style>
  </defs>
  <title
     id="title6">twitter-original</title>
  <path
     id="original"
     class="cls-1"
     d="m 18.868821,48.751195 c 22.642586,0 35.023765,-18.759506 35.023765,-35.023764 0,-0.53232 0,-1.064639 -0.03327,-1.592206 A 25.047529,25.047529 0 0 0 60,5.7616506 24.572243,24.572243 0 0 1 52.93251,7.7008146 12.357414,12.357414 0 0 0 58.341255,0.8899776 24.6673,24.6673 0 0 1 50.522814,3.8795216 12.319392,12.319392 0 0 0 29.548479,15.105758 34.947719,34.947719 0 0 1 4.1777567,2.2445406 12.319392,12.319392 0 0 0 7.980038,18.679902 12.219582,12.219582 0 0 1 2.4334601,17.135225 c 0,0.05228 0,0.104563 0,0.156845 A 12.314639,12.314639 0 0 0 12.286122,29.35956 12.290875,12.290875 0 0 1 6.7252852,29.568685 12.324144,12.324144 0 0 0 18.227186,38.123819 24.714829,24.714829 0 0 1 2.9372624,43.380473 25.057034,25.057034 0 0 1 0,43.20937 34.847909,34.847909 0 0 0 18.868821,48.736935"
     inkscape:connector-curvature="0"
     style="fill:#1da1f2;stroke-width:0.47528517" />
</svg>
