<svg width="264" height="167" viewBox="0 0 264 167" fill="none" xmlns="http://www.w3.org/2000/svg">
<rect width="264" height="167" fill="#1E1E1E"/>
<rect x="-829" y="-335" width="1920" height="980" fill="#222222"/>
<rect x="-69" y="-34" width="400" height="253.292" rx="5" fill="white"/>
<path d="M264 22.8652L258.62 19.0174L255.917 10.7865L249.077 10.2016L247.372 22.0863L245.205 25.5204L243.867 27.8095L235.857 30.0006L229.211 31.584L223.854 38.5244L225.364 41.7388L214.141 48.8505L210.708 53.2089L207.495 55.596L198.803 60.759L194.007 59.2972L197.708 50.5546L192.23 42.9324L190.623 36.5521L186.534 34.36L179.522 40.765L178.086 46.2447L180.204 53.1604L178.11 61.0261L174.921 61.5378L173.144 56.8617L172.242 52.0164L173.971 42.0555L172.584 40.2781L174.75 34.9201L187.848 33.0447L183.125 28.3696L172.851 31.2188L167.812 27.76L159.388 31.8027L151.866 31.0476L154.446 22.8167L149.115 19.8458L144.392 20.114L138.305 17.1668L129.663 17.143L100.862 15.6813L65.2936 10.835L50.7839 7.86403L46.7187 6.93871L23.396 0.655396L21.7408 5.8669L13.7548 3.13942L13.5599 16.0465L16.3598 17.3132L12.1481 20.1377L4.04147 35.6268L3.89503 41.2034L0 50.2864L0.243375 60.466L8.13141 92.222L17.2611 97.3365L21.4964 102.986L22.3245 108.418L35.1543 110.097L34.3509 111.315L53.2919 122.444L63.8581 124.101L68.7266 121.884L77.9295 123.102L85.3298 130.895L87.351 137.543L94.6791 142.56L97.6491 137.933L104.757 138.176L114.764 152.812L116.93 160.386L127.204 162.48L125.89 156.733L129.005 150.158L137.088 145.555L147.045 137.592L155.615 140.197L157.928 138.201L163.527 142.389L169.759 140.344L170.661 135.157L176.747 133.427L182.102 132.356L189.674 132.697L196.223 136.399L201.043 132.6L209.832 139.32L209.735 146.262L215.188 154.444L225.583 160.435L226.168 149.038L221.98 139.979L214.263 126.755L216.186 117.939L223.952 109.148L226.289 104.18L238.291 89.0808L235.759 84.9896L235.832 84.9648L236.076 84.9164L236.514 84.8194L236.636 84.7946L232.521 81.0933L232.838 76.8804L231.441 75.4837L235.686 75.8334L236.928 75.2237L237.707 72.2043L237.854 72.1805L237.902 72.1558L234.153 64.2653L235.759 62.5364L240.507 63.243L239.533 55.2793L240.75 54.9141L248.541 50.8466L250.683 47.657L250.927 47.8024L251.535 48.704L253.702 46.0983L250.586 39.9852L250.537 38.6462L254.652 32.4846L264 22.8652ZM34.9594 135.401L32.0141 136.448L24.8325 139.857L21.1561 145.36L22.1059 152.739L19.0132 158.487L27.2425 166.255L48.2522 163.625L47.4736 140.684L34.9594 135.401Z" fill="#196FC1"/>
</svg>
