<?xml version="1.0" encoding="UTF-8" standalone="no"?>
<svg
   width="200"
   height="200"
   viewBox="0 0 200 200"
   fill="none"
   version="1.1"
   id="svg2"
   sodipodi:docname="check.svg"
   inkscape:version="1.4 (e7c3feb, 2024-10-09)"
   xmlns:inkscape="http://www.inkscape.org/namespaces/inkscape"
   xmlns:sodipodi="http://sodipodi.sourceforge.net/DTD/sodipodi-0.dtd"
   xmlns="http://www.w3.org/2000/svg"
   xmlns:svg="http://www.w3.org/2000/svg">
  <defs
     id="defs2" />
  <sodipodi:namedview
     id="namedview2"
     pagecolor="#505050"
     bordercolor="#eeeeee"
     borderopacity="1"
     inkscape:showpageshadow="0"
     inkscape:pageopacity="0"
     inkscape:pagecheckerboard="0"
     inkscape:deskcolor="#505050"
     inkscape:zoom="4.03"
     inkscape:cx="100"
     inkscape:cy="100"
     inkscape:window-width="1920"
     inkscape:window-height="1048"
     inkscape:window-x="1920"
     inkscape:window-y="0"
     inkscape:window-maximized="1"
     inkscape:current-layer="svg2" />
  <rect
     width="200"
     height="200"
     fill="#1E1E1E"
     id="rect1"
     style="fill:#1e1e1e;fill-opacity:0" />
  <path
     d="M151.863 97.3273C151.863 121.684 129.997 141.429 103.023 141.429C76.049 141.429 54.1824 121.684 54.1824 97.3273C54.1824 72.9708 76.049 53.2259 103.023 53.2259C129.997 53.2259 151.863 72.9708 151.863 97.3273Z"
     fill="#D9D9D9"
     id="path1" />
  <path
     fill-rule="evenodd"
     clip-rule="evenodd"
     d="M74.462 13.1423C86.978 -4.38076 113.021 -4.38076 125.538 13.1423L127.531 15.932C129.733 19.016 133.432 20.6673 137.198 20.2488L146.08 19.2619C166.069 17.041 182.959 33.9308 180.738 53.9196L179.752 62.8014C179.333 66.568 180.984 70.2665 184.068 72.4693L186.858 74.462C204.381 86.978 204.381 113.021 186.858 125.538L184.068 127.531C180.984 129.733 179.333 133.432 179.752 137.198L180.738 146.08C182.959 166.069 166.069 182.959 146.08 180.738L137.198 179.752C133.432 179.333 129.733 180.984 127.531 184.068L125.538 186.858C113.021 204.381 86.979 204.381 74.462 186.858L72.4693 184.068C70.2665 180.984 66.568 179.333 62.8013 179.752L53.9196 180.738C33.9308 182.959 17.041 166.069 19.2619 146.08L20.2488 137.198C20.6673 133.432 19.016 129.733 15.932 127.531L13.1423 125.538C-4.38076 113.021 -4.38076 86.979 13.1423 74.462L15.932 72.4693C19.016 70.2665 20.6673 66.568 20.2488 62.8013L19.2619 53.9196C17.041 33.9308 33.9308 17.041 53.9196 19.2619L62.8014 20.2488C66.568 20.6673 70.2665 19.016 72.4693 15.932L74.462 13.1423ZM138.781 71.6803C142.866 75.7658 142.866 82.3897 138.781 86.4748L98.8306 126.425C93.6993 131.558 85.3784 131.558 80.2472 126.425L61.2191 107.397C57.1337 103.312 57.1337 96.6881 61.2191 92.603C65.3045 88.5179 71.9282 88.5179 76.0136 92.603L89.5389 106.128L123.987 71.6803C128.072 67.595 134.696 67.595 138.781 71.6803Z"
     fill="#623679"
     id="path2" />
</svg>
