<svg width="263" height="264" viewBox="0 0 263 264" fill="none" xmlns="http://www.w3.org/2000/svg">
<rect width="263" height="264" fill="#1E1E1E"/>
<rect x="-1298" y="-222" width="1919" height="620" fill="white"/>
<path fill-rule="evenodd" clip-rule="evenodd" d="M97.5741 17.5959C113.975 -5.44953 148.102 -5.44953 164.504 17.5959L167.115 21.2648C170.001 25.3207 174.848 27.4924 179.783 26.9421L191.422 25.6441C217.615 22.7233 239.748 44.9359 236.837 71.2242L235.545 82.9051C234.996 87.8587 237.159 92.7228 241.201 95.6198L244.857 98.2405C267.818 114.701 267.818 148.952 244.857 165.413L241.201 168.034C237.159 170.93 234.996 175.795 235.545 180.748L236.837 192.429C239.748 218.718 217.615 240.93 191.422 238.01L179.783 236.712C174.848 236.162 170.001 238.333 167.115 242.389L164.504 246.058C148.102 269.103 113.976 269.103 97.5741 246.058L94.963 242.389C92.0764 238.333 87.23 236.162 82.2941 236.712L70.6556 238.01C44.4626 240.93 22.3303 218.718 25.2406 192.429L26.5338 180.748C27.0822 175.795 24.9183 170.93 20.8771 168.034L17.2215 165.413C-5.7405 148.952 -5.7405 114.702 17.2215 98.2405L20.8771 95.6198C24.9183 92.7228 27.0822 87.8587 26.5338 82.905L25.2406 71.2242C22.3303 44.9359 44.4626 22.7233 70.6556 25.6441L82.2943 26.9421C87.23 27.4924 92.0764 25.3207 94.963 21.2648L97.5741 17.5959ZM181.857 94.5822C187.21 99.9552 187.21 108.667 181.857 114.039L129.506 166.58C122.783 173.33 111.879 173.33 105.155 166.58L80.2207 141.555C74.8674 136.183 74.8674 127.471 80.2207 122.099C85.5743 116.726 94.2538 116.726 99.6074 122.099L117.331 139.887L162.471 94.5822C167.824 89.2094 176.504 89.2094 181.857 94.5822Z" fill="#623679"/>
</svg>
