<svg width="142" height="142" viewBox="0 0 142 142" fill="none" xmlns="http://www.w3.org/2000/svg">
<rect width="142" height="142" fill="#1E1E1E"/>
<rect x="-1427" y="-712" width="1920" height="980" fill="#222222"/>
<rect x="-129" y="-46" width="400" height="253.292" rx="5" fill="white"/>
<path d="M71 0.794189C32.3406 0.794189 0.773438 32.4761 0.773438 71.2759C0.773438 110.076 32.3406 141.758 71 141.758C109.659 141.758 141.227 110.076 141.227 71.2759C141.227 32.4761 109.659 0.794189 71 0.794189ZM71 9.16825C105.07 9.16825 132.883 37.0818 132.883 71.2759C132.883 105.47 105.07 133.384 71 133.384C36.9297 133.384 9.11719 105.47 9.11719 71.2759C9.11719 37.0818 36.9297 9.16825 71 9.16825ZM71 25.2185C68.6359 25.2185 66.8281 27.0329 66.8281 29.4056V64.0195C64.325 65.4152 62.6562 68.2054 62.6562 71.2759C62.6562 75.8816 66.4109 79.65 71 79.65C74.0594 79.65 76.8395 77.9752 78.2302 75.4629H98.8125C101.177 75.4629 102.984 73.6486 102.984 71.2759C102.984 68.9033 101.177 67.0889 98.8125 67.0889H78.2302C77.5349 65.8328 76.4234 64.7173 75.1719 64.0195V29.4056C75.1719 27.0329 73.3641 25.2185 71 25.2185Z" fill="#196FC1"/>
</svg>
