<svg width="143" height="140" viewBox="0 0 143 140" fill="none" xmlns="http://www.w3.org/2000/svg">
<rect width="143" height="140" fill="#1E1E1E"/>
<rect x="-1426" y="-681" width="1920" height="951" fill="white"/>
<rect x="-128" y="-44" width="400" height="253.292" rx="5" fill="#196FC1"/>
<path d="M122.338 95.9292C115.75 92.0861 108.283 87.7308 97.0429 87.7308C87.1256 87.7308 80.3569 90.7142 73.8116 93.5988C67.3834 96.432 60.7355 99.3608 51.0782 99.3608C41.5371 99.3608 35.5741 93.8851 29.2605 88.0885C23.0511 82.3855 16.6294 76.489 6.60871 76.489C6.2674 76.489 5.99072 76.7656 5.99072 77.1069V131.941C5.99072 133.046 6.88615 133.941 7.99072 133.941H135.009C136.114 133.941 137.009 133.046 137.009 131.941V101.917C137.009 101.576 136.733 101.299 136.391 101.299C131.547 101.299 127.28 98.8111 122.338 95.9292Z" fill="white"/>
<path d="M86.5161 72.9934C96.6418 72.9934 105.373 65.7613 107.277 55.797L107.642 53.8844L106.242 55.2321C103.627 57.7489 100.182 59.1345 96.5392 59.1345C88.7689 59.1345 82.4467 52.8003 82.4467 45.0135C82.4467 39.4598 85.7116 34.4059 90.7639 32.1384L92.5308 31.3449L90.6333 30.9642C89.3033 30.697 87.9181 30.5616 86.5158 30.5616C74.8595 30.5616 65.3763 40.0789 65.3763 51.7771C65.3763 63.4754 74.8595 72.9934 86.5161 72.9934Z" fill="white"/>
<path d="M121.945 96.604L121.945 96.604L122.054 96.6677C126.854 99.4675 131.239 102.025 136.228 102.079V131.941C136.228 132.614 135.682 133.16 135.009 133.16H7.99072C7.31763 133.16 6.77197 132.614 6.77197 131.941V77.2708C16.3558 77.3341 22.5318 82.9693 28.732 88.6639L28.7321 88.664L28.8093 88.7348C35.0693 94.4825 41.2334 100.142 51.0782 100.142C60.9028 100.142 67.6779 97.156 74.1069 94.3225L74.1267 94.3137C80.6644 91.4324 87.3025 88.512 97.0429 88.512C108.056 88.512 115.363 92.7649 121.945 96.604ZM108.045 55.9436L108.045 55.9434L108.41 54.0308L108.87 51.6179L107.101 53.3215L105.701 54.6692C105.701 54.6692 105.701 54.6693 105.701 54.6693C103.232 57.0454 99.981 58.3533 96.5392 58.3533C89.2018 58.3533 83.228 52.3703 83.228 45.0135C83.228 39.7664 86.3132 34.9922 91.0838 32.8511L91.084 32.8511L92.8509 32.0576L95.0755 31.0587L92.6845 30.5789L90.7872 30.1983C90.7872 30.1982 90.7871 30.1982 90.787 30.1982C89.4047 29.9205 87.9679 29.7804 86.5158 29.7804C74.4254 29.7804 64.595 39.6501 64.595 51.7771C64.595 63.9042 74.4253 73.7747 86.5161 73.7747C97.0178 73.7747 106.071 66.2751 108.045 55.9436ZM106.41 56.1434C104.386 65.485 96.0981 72.2122 86.5161 72.2122C75.2936 72.2122 66.1575 63.0466 66.1575 51.7771C66.1575 40.5077 75.2936 31.3429 86.5158 31.3429C87.6965 31.3429 88.863 31.4424 89.9903 31.6385C84.9154 34.1256 81.6655 39.3211 81.6655 45.0135C81.6655 53.2303 88.336 59.9158 96.5392 59.9158C100.212 59.9158 103.698 58.5801 106.41 56.1434ZM0.78125 3.45508C0.78125 2.2297 1.77462 1.23633 3 1.23633H140C141.225 1.23633 142.219 2.2297 142.219 3.45508V136.96C142.219 138.185 141.225 139.179 140 139.179H3C1.77462 139.179 0.78125 138.186 0.78125 136.96V3.45508ZM122.732 95.2543L122.706 95.2389C116.116 91.3953 108.495 86.9495 97.0429 86.9495C86.9615 86.9495 80.0669 89.9882 73.5216 92.8729L73.4965 92.8839C67.0749 95.7142 60.5581 98.5795 51.0782 98.5795C41.8813 98.5795 36.1295 93.3345 29.789 87.5131C29.7889 87.5131 29.7889 87.513 29.7889 87.513L29.7219 87.4515C23.5575 81.7897 16.9356 75.7077 6.60871 75.7077C5.83593 75.7077 5.20947 76.3342 5.20947 77.1069V131.941C5.20947 133.477 6.45468 134.723 7.99072 134.723H135.009C136.545 134.723 137.791 133.477 137.791 131.941V101.917C137.791 101.144 137.164 100.518 136.391 100.518C131.797 100.518 127.72 98.1631 122.732 95.2543C122.732 95.2543 122.732 95.2543 122.732 95.2543Z" stroke="white" stroke-width="1.5625"/>
</svg>
