<svg width="220" height="104" viewBox="0 0 220 104" fill="none" xmlns="http://www.w3.org/2000/svg">
<rect width="220" height="104" fill="#1E1E1E"/>
<rect x="-850" y="-737" width="1920" height="980" fill="#222222"/>
<rect x="-90" y="-71" width="400" height="253.292" rx="5" fill="white"/>
<path d="M219.376 52.2977C219.376 62.4584 216.374 72.391 210.749 80.8393C205.125 89.2877 197.13 95.8723 187.777 99.7607C178.424 103.649 168.131 104.666 158.202 102.684C148.273 100.702 139.152 95.8087 131.993 88.6239C131.889 88.5191 131.788 88.4113 131.69 88.3005L76.8912 26.2002C71.7611 21.1108 65.2457 17.6581 58.1649 16.2767C51.0841 14.8952 43.7544 15.6466 37.0982 18.4365C30.442 21.2263 24.7567 25.9298 20.7579 31.9551C16.7591 37.9804 14.6254 45.0582 14.6254 52.2977C14.6254 59.5372 16.7591 66.615 20.7579 72.6403C24.7567 78.6656 30.442 83.3691 37.0982 86.1589C43.7544 88.9488 51.0841 89.7002 58.1649 88.3187C65.2457 86.9373 71.7611 83.4846 76.8912 78.3952L84.6781 69.5708C85.3144 68.8479 86.0865 68.2581 86.9501 67.8349C87.8137 67.4118 88.752 67.1636 89.7112 67.1047C90.6705 67.0457 91.6319 67.1771 92.5405 67.4913C93.4491 67.8056 94.2871 68.2965 95.0065 68.936C95.726 69.5755 96.3127 70.3511 96.7333 71.2184C97.1539 72.0857 97.4 73.0276 97.4575 73.9904C97.5151 74.9532 97.383 75.918 97.0688 76.8295C96.7546 77.741 96.2644 78.5815 95.6263 79.3027L87.6863 88.3005C87.5885 88.4112 87.4874 88.519 87.3828 88.6239C80.2242 95.8087 71.1034 100.702 61.174 102.684C51.2446 104.666 40.9524 103.649 31.5991 99.7607C22.2457 95.8724 14.2513 89.2877 8.62671 80.8394C3.00212 72.391 0 62.4584 0 52.2977C0 42.1369 3.00212 32.2044 8.62671 23.756C14.2513 15.3077 22.2457 8.72302 31.5991 4.83471C40.9524 0.946398 51.2446 -0.0709192 61.174 1.91141C71.1034 3.89373 80.2242 8.78667 87.3828 15.9715C87.4873 16.0763 87.5884 16.1841 87.6863 16.2949L142.485 78.3952C147.615 83.4846 154.13 86.9373 161.211 88.3187C168.292 89.7002 175.622 88.9488 182.278 86.1589C188.934 83.3691 194.619 78.6656 198.618 72.6403C202.617 66.615 204.751 59.5372 204.751 52.2977C204.751 45.0582 202.617 37.9804 198.618 31.9551C194.619 25.9298 188.934 21.2263 182.278 18.4365C175.622 15.6466 168.292 14.8952 161.211 16.2767C154.13 17.6581 147.615 21.1108 142.485 26.2002L134.698 35.0246C133.411 36.4783 131.602 37.3601 129.668 37.4762C127.734 37.5924 125.833 36.9335 124.383 35.6443C122.933 34.355 122.051 32.5408 121.933 30.5999C121.814 28.6591 122.467 26.7503 123.75 25.2927L131.69 16.2949C131.788 16.1842 131.889 16.0764 131.993 15.9715C139.152 8.78687 148.273 3.8941 158.202 1.91189C168.131 -0.070326 178.423 0.947038 187.777 4.83533C197.13 8.72362 205.124 15.3082 210.749 23.7564C216.373 32.2046 219.376 42.1371 219.376 52.2977Z" fill="#196FC1"/>
</svg>
