<svg width="270" height="270" viewBox="0 0 270 270" fill="none" xmlns="http://www.w3.org/2000/svg">
<rect width="270" height="270" fill="#1E1E1E"/>
<rect x="-821" y="-212" width="1919" height="620" fill="white"/>
<circle cx="135" cy="135" r="135" fill="#623679"/>
<path d="M236.438 136C236.438 145.086 233.743 153.967 228.696 161.522C223.648 169.076 216.474 174.964 208.08 178.441C199.686 181.918 190.449 182.827 181.538 181.055C172.627 179.282 164.442 174.907 158.018 168.482C157.924 168.389 157.833 168.292 157.745 168.193L108.567 112.664C103.963 108.113 98.1158 105.026 91.7613 103.79C85.4068 102.555 78.8288 103.227 72.8553 105.722C66.8817 108.216 61.7796 112.422 58.1909 117.81C54.6022 123.198 52.6874 129.527 52.6874 136C52.6874 142.474 54.6022 148.802 58.1909 154.19C61.7796 159.578 66.8817 163.784 72.8553 166.278C78.8288 168.773 85.4068 169.445 91.7613 168.21C98.1158 166.974 103.963 163.887 108.567 159.336L115.555 151.445C116.126 150.799 116.819 150.272 117.594 149.893C118.369 149.515 119.211 149.293 120.072 149.24C120.933 149.188 121.796 149.305 122.611 149.586C123.427 149.867 124.179 150.306 124.824 150.878C125.47 151.45 125.997 152.143 126.374 152.919C126.751 153.694 126.972 154.536 127.024 155.397C127.076 156.258 126.957 157.121 126.675 157.936C126.393 158.751 125.953 159.503 125.381 160.148L118.255 168.193C118.167 168.292 118.076 168.389 117.982 168.482C111.558 174.907 103.373 179.282 94.4617 181.055C85.5507 182.827 76.3142 181.918 67.9202 178.441C59.5261 174.964 52.3516 169.076 47.3039 161.522C42.2562 153.967 39.562 145.086 39.562 136C39.562 126.914 42.2562 118.033 47.3039 110.478C52.3516 102.924 59.5261 97.0361 67.9202 93.5592C76.3142 90.0824 85.5507 89.1727 94.4617 90.9453C103.373 92.7178 111.558 97.093 117.982 103.518C118.076 103.611 118.167 103.708 118.255 103.807L167.433 159.336C172.037 163.887 177.884 166.974 184.239 168.21C190.593 169.445 197.171 168.773 203.145 166.278C209.118 163.784 214.22 159.578 217.809 154.19C221.398 148.802 223.313 142.474 223.313 136C223.313 129.527 221.398 123.198 217.809 117.81C214.22 112.422 209.118 108.216 203.145 105.722C197.171 103.227 190.593 102.555 184.239 103.79C177.884 105.026 172.037 108.113 167.433 112.664L160.445 120.555C159.29 121.855 157.667 122.643 155.931 122.747C154.195 122.851 152.489 122.262 151.188 121.109C149.886 119.956 149.095 118.334 148.989 116.598C148.882 114.863 149.469 113.156 150.62 111.852L157.745 103.807C157.833 103.708 157.924 103.611 158.018 103.518C164.442 97.0932 172.627 92.7182 181.538 90.9457C190.449 89.1732 199.686 90.0829 208.079 93.5598C216.473 97.0366 223.648 102.924 228.696 110.479C233.743 118.033 236.437 126.915 236.438 136Z" fill="white"/>
</svg>
