<?xml version="1.0" encoding="UTF-8" standalone="no"?>
<svg
   width="200"
   height="200"
   viewBox="0 0 200 200"
   fill="none"
   version="1.1"
   id="svg2"
   sodipodi:docname="infinite.svg"
   inkscape:version="1.4 (e7c3feb, 2024-10-09)"
   xmlns:inkscape="http://www.inkscape.org/namespaces/inkscape"
   xmlns:sodipodi="http://sodipodi.sourceforge.net/DTD/sodipodi-0.dtd"
   xmlns="http://www.w3.org/2000/svg"
   xmlns:svg="http://www.w3.org/2000/svg">
  <defs
     id="defs2" />
  <sodipodi:namedview
     id="namedview2"
     pagecolor="#505050"
     bordercolor="#eeeeee"
     borderopacity="1"
     inkscape:showpageshadow="0"
     inkscape:pageopacity="0"
     inkscape:pagecheckerboard="0"
     inkscape:deskcolor="#505050"
     inkscape:zoom="4.03"
     inkscape:cx="100"
     inkscape:cy="100"
     inkscape:window-width="1920"
     inkscape:window-height="1008"
     inkscape:window-x="0"
     inkscape:window-y="0"
     inkscape:window-maximized="1"
     inkscape:current-layer="svg2" />
  <rect
     width="200"
     height="200"
     fill="#1E1E1E"
     id="rect1"
     style="fill:#1e1e1e;fill-opacity:0" />
  <path
     d="M200 100C200 155.228 155.228 200 100 200C44.7715 200 0 155.228 0 100C0 44.7715 44.7715 0 100 0C155.228 0 200 44.7715 200 100Z"
     fill="#623679"
     id="path1" />
  <path
     d="M175.139 100.741C175.139 107.471 173.143 114.05 169.404 119.646C165.665 125.241 160.351 129.603 154.133 132.178C147.915 134.754 141.073 135.428 134.473 134.115C127.872 132.802 121.809 129.561 117.05 124.802C116.981 124.732 116.913 124.661 116.848 124.588L80.4199 83.4548C77.0096 80.0838 72.6784 77.7969 67.9713 76.8818C63.2642 75.9668 58.3917 76.4645 53.9668 78.3124C49.542 80.1603 45.7626 83.2757 43.1043 87.2666C40.446 91.2575 39.0276 95.9456 39.0276 100.741C39.0276 105.536 40.446 110.224 43.1043 114.215C45.7626 118.206 49.542 121.321 53.9668 123.169C58.3917 125.017 63.2642 125.515 67.9713 124.6C72.6784 123.685 77.0096 121.398 80.4199 118.027L85.5964 112.182C86.0194 111.703 86.5326 111.312 87.1067 111.032C87.6808 110.752 88.3046 110.587 88.9422 110.548C89.5799 110.509 90.219 110.596 90.8231 110.804C91.4271 111.013 91.9841 111.338 92.4624 111.761C92.9406 112.185 93.3307 112.699 93.6103 113.273C93.8899 113.848 94.0535 114.471 94.0917 115.109C94.13 115.747 94.0422 116.386 93.8333 116.99C93.6244 117.593 93.2986 118.15 92.8744 118.628L87.5961 124.588C87.5312 124.661 87.4639 124.732 87.3944 124.802C82.6356 129.561 76.5724 132.802 69.9716 134.115C63.3709 135.428 56.529 134.754 50.3112 132.178C44.0934 129.603 38.779 125.241 35.0399 119.646C31.3009 114.05 29.3052 107.471 29.3052 100.741C29.3052 94.0107 31.3009 87.4317 35.0399 81.8359C38.779 76.24 44.0934 71.8786 50.3112 69.3031C56.529 66.7276 63.3709 66.0538 69.9716 67.3668C76.5724 68.6798 82.6356 71.9207 87.3944 76.6797C87.4638 76.7491 87.5311 76.8205 87.5961 76.8939L124.025 118.027C127.435 121.398 131.766 123.685 136.473 124.6C141.18 125.515 146.053 125.017 150.478 123.169C154.902 121.321 158.682 118.206 161.34 114.215C163.998 110.224 165.417 105.536 165.417 100.741C165.417 95.9456 163.998 91.2575 161.34 87.2666C158.682 83.2757 154.902 80.1603 150.478 78.3124C146.053 76.4645 141.18 75.9668 136.473 76.8818C131.766 77.7969 127.435 80.0838 124.025 83.4548L118.848 89.2997C117.993 90.2626 116.79 90.8466 115.504 90.9236C114.219 91.0005 112.955 90.5641 111.991 89.7102C111.027 88.8562 110.441 87.6545 110.362 86.369C110.283 85.0834 110.718 83.8191 111.57 82.8537L116.848 76.8939C116.913 76.8206 116.981 76.7492 117.05 76.6797C121.809 71.9209 127.872 68.6801 134.473 67.3672C141.073 66.0542 147.915 66.7281 154.133 69.3035C160.351 71.879 165.665 76.2403 169.404 81.8361C173.143 87.4319 175.139 94.0107 175.139 100.741Z"
     fill="white"
     id="path2" />
</svg>
