<svg width="174" height="149" viewBox="0 0 174 149" fill="none" xmlns="http://www.w3.org/2000/svg">
<rect width="174" height="149" fill="#1E1E1E"/>
<rect x="-1411" y="-310" width="1920" height="951" fill="white"/>
<rect x="-113" y="-38" width="400" height="253.292" rx="5" fill="#196FC1"/>
<path d="M168.212 0H5.7884C2.59677 0 0 2.6062 0 5.80943V143.084C0 146.287 2.59677 148.893 5.7884 148.893H168.212C171.403 148.893 174 146.287 174 143.084V5.80943C174 2.6062 171.403 0 168.212 0ZM3.02778 125.594H47.4976C48.3337 125.594 49.0115 124.914 49.0115 124.075C49.0115 123.235 48.3337 122.555 47.4976 122.555H3.02778V107.004H25.3172C26.1532 107.004 26.8311 106.324 26.8311 105.485C26.8311 104.645 26.1532 103.965 25.3172 103.965H3.02778V36.2183H20.3303C21.1663 36.2183 21.8442 35.5383 21.8442 34.6989C21.8442 33.8595 21.1663 33.1795 20.3303 33.1795H3.02778V23.8837H170.972V39.5545H139.312C138.475 39.5545 137.798 40.2345 137.798 41.0739C137.798 41.9133 138.475 42.5933 139.312 42.5933H170.972V114.69H134.435C133.599 114.69 132.921 115.37 132.921 116.21C132.921 117.049 133.599 117.729 134.435 117.729H170.972V134.174H3.02778V125.594ZM5.7884 3.03878H168.212C169.734 3.03878 170.972 4.28182 170.972 5.80943V11.1924H60.5891C59.753 11.1924 59.0752 11.8723 59.0752 12.7117C59.0752 13.5512 59.753 14.2311 60.5891 14.2311H170.972V20.8449H3.02778V5.80943C3.02778 4.28182 4.26632 3.03878 5.7884 3.03878ZM168.212 145.855H5.7884C4.26632 145.855 3.02778 144.612 3.02778 143.084V137.212H170.972V143.084C170.972 144.612 169.734 145.855 168.212 145.855Z" fill="white"/>
<path d="M13.5695 17.4488C16.5648 17.4488 19.0016 15.0031 19.0016 11.9968C19.0016 8.9906 16.5648 6.54492 13.5695 6.54492C10.5741 6.54492 8.13727 8.9906 8.13727 11.9968C8.13727 15.0031 10.5745 17.4488 13.5695 17.4488ZM13.5695 9.5837C14.8953 9.5837 15.9739 10.6662 15.9739 11.9968C15.9739 13.3275 14.8953 14.41 13.5695 14.41C12.2436 14.41 11.165 13.3275 11.165 11.9968C11.165 10.6662 12.2436 9.5837 13.5695 9.5837Z" fill="white"/>
<path d="M28.7083 17.4488C31.7037 17.4488 34.1405 15.0031 34.1405 11.9968C34.1405 8.9906 31.7037 6.54492 28.7083 6.54492C25.713 6.54492 23.2761 8.9906 23.2761 11.9968C23.2761 15.0031 25.7133 17.4488 28.7083 17.4488ZM28.7083 9.5837C30.0341 9.5837 31.1127 10.6662 31.1127 11.9968C31.1127 13.3275 30.0341 14.41 28.7083 14.41C27.3825 14.41 26.3039 13.3275 26.3039 11.9968C26.3039 10.6662 27.3825 9.5837 28.7083 9.5837Z" fill="white"/>
<path d="M43.8472 17.4488C46.8426 17.4488 49.2794 15.0031 49.2794 11.9968C49.2794 8.9906 46.8426 6.54492 43.8472 6.54492C40.8519 6.54492 38.415 8.9906 38.415 11.9968C38.415 15.0031 40.8522 17.4488 43.8472 17.4488ZM43.8472 9.5837C45.173 9.5837 46.2516 10.6662 46.2516 11.9968C46.2516 13.3275 45.173 14.41 43.8472 14.41C42.5214 14.41 41.4428 13.3275 41.4428 11.9968C41.4428 10.6662 42.5214 9.5837 43.8472 9.5837Z" fill="white"/>
<path d="M111.6 65.9949C111.009 65.4014 110.049 65.4014 109.459 65.9949L96.0917 79.4102L96.0921 46.7423C96.0921 43.2316 93.2459 40.3748 89.7469 40.3748H80.0847C76.5864 40.3748 73.7403 43.2312 73.7403 46.7423V79.4123L60.3725 65.9963C60.0886 65.711 59.7031 65.5512 59.3021 65.5512C58.9006 65.5512 58.5155 65.711 58.2316 65.9963L48.0925 76.1726C45.619 78.6552 45.619 82.6953 48.0925 85.1778L80.4306 117.633C81.6289 118.836 83.2222 119.498 84.9171 119.498C86.6115 119.498 88.2049 118.836 89.4035 117.633L121.741 85.1778C122.94 83.9752 123.6 82.376 123.6 80.675C123.6 78.974 122.94 77.3749 121.741 76.1723L111.6 65.9949ZM119.6 83.0292L87.2616 115.484C86.6351 116.113 85.8022 116.46 84.916 116.46C84.0301 116.46 83.1973 116.113 82.5707 115.484L62.3658 95.2061H86.3832C87.2192 95.2061 87.8975 94.5262 87.8975 93.6867C87.8975 92.8473 87.2192 92.1674 86.3832 92.1674H59.4068C59.3854 92.1674 59.3658 92.1731 59.3444 92.1738L50.233 83.0292C48.9399 81.7311 48.9399 79.619 50.233 78.3209L59.3017 69.2192L74.1834 84.1546C74.6166 84.5894 75.2677 84.7195 75.8334 84.4842C76.399 84.249 76.7681 83.6949 76.7681 83.0803V46.7423C76.7681 44.9068 78.2559 43.4135 80.0851 43.4135H89.7473C91.5764 43.4135 93.0646 44.9068 93.0646 46.7423L93.0643 83.0785C93.0643 83.6931 93.4329 84.2472 93.999 84.4825C94.5643 84.7177 95.2158 84.5879 95.6486 84.1528L110.53 69.2181L119.6 78.3212C120.227 78.9505 120.572 79.7863 120.572 80.6754C120.572 81.5645 120.226 82.4 119.6 83.0292Z" fill="white"/>
</svg>
