<?xml version="1.0" encoding="UTF-8" standalone="no"?>
<svg
   width="131"
   height="159"
   viewBox="0 0 131 159"
   fill="none"
   version="1.1"
   id="svg5"
   sodipodi:docname="logo-source-no-background.svg"
   inkscape:version="1.3.2 (091e20ef0f, 2023-11-25)"
   xmlns:inkscape="http://www.inkscape.org/namespaces/inkscape"
   xmlns:sodipodi="http://sodipodi.sourceforge.net/DTD/sodipodi-0.dtd"
   xmlns="http://www.w3.org/2000/svg"
   xmlns:svg="http://www.w3.org/2000/svg">
  <sodipodi:namedview
     id="namedview5"
     pagecolor="#505050"
     bordercolor="#eeeeee"
     borderopacity="1"
     inkscape:showpageshadow="0"
     inkscape:pageopacity="0"
     inkscape:pagecheckerboard="0"
     inkscape:deskcolor="#505050"
     inkscape:zoom="4.0854271"
     inkscape:cx="99.377614"
     inkscape:cy="99.5"
     inkscape:window-width="1920"
     inkscape:window-height="1043"
     inkscape:window-x="1920"
     inkscape:window-y="0"
     inkscape:window-maximized="1"
     inkscape:current-layer="svg5" />
  <path
     d="M 114.41991,150.53545 H 16.468325 c -8.0817987,0 -11.019099,-5.464 -6.5645991,-12.209 L 53.997324,71.59915 v -55.9703 h -1.564193 c -2.198102,0 -3.978399,-1.7815 -3.978399,-3.9773 0,-2.2004996 1.780297,-3.9783996 3.978399,-3.9783996 h 26.020797 c 2.199,0 3.979002,1.7779 3.979002,3.9783996 0,2.1958 -1.780002,3.9773 -3.979002,3.9773 h -1.563996 v 55.9743 l 44.092988,66.7233 c 4.45702,6.745 1.51601,12.209 -6.56301,12.209 z m 11.44704,-15.429 -43.12302,-65.2653 v -49.3456 c 3.275998,-1.5976 5.542003,-4.9619 5.542003,-8.844 0,-5.4254996 -4.412005,-9.8340996 -9.832005,-9.8340996 H 52.433131 c -5.421104,0 -9.831403,4.4086 -9.831403,9.8340996 0,3.8821 2.267895,7.2464 5.544604,8.844 v 49.3456 l -43.1261064,65.2653 c -3.3475996,5.063 -3.9657002,10.391 -1.6935003,14.625 2.2802005,4.228 7.0653047,6.656 13.1376027,6.656 h 97.957602 c 6.07499,0 10.86004,-2.428 13.13801,-6.656 2.27098,-4.234 1.654,-9.562 -1.69299,-14.625 z"
     fill="url(#paint0_linear_0_1)"
     id="path1"
     style="fill:url(#paint0_linear_0_1);stroke-width:1" />
  <path
     d="m 84.710928,133.67145 -13.915999,-6.293 -4.842,14.484 -5.390199,-14.289 -13.666501,6.819 6.293103,-13.917 -14.485203,-4.842 14.290197,-5.391 -6.818898,-13.666 13.916504,6.293 4.842399,-14.485 5.3906,14.29 13.666,-6.819 -6.293002,13.917 14.483997,4.841 -14.288998,5.391 z"
     fill="url(#paint1_linear_0_1)"
     id="path2"
     style="fill:url(#paint1_linear_0_1);stroke-width:1" />
  <defs
     id="defs5">
    <linearGradient
       id="paint0_linear_0_1"
       x1="99.500298"
       y1="183"
       x2="99.500298"
       y2="58"
       gradientUnits="userSpaceOnUse"
       gradientTransform="translate(-34.057076,-20.39755)">
      <stop
         stop-color="#196FC1"
         id="stop2" />
      <stop
         offset="1"
         stop-color="white"
         id="stop3" />
    </linearGradient>
    <linearGradient
       id="paint1_linear_0_1"
       x1="98"
       y1="116.5"
       x2="98"
       y2="162"
       gradientUnits="userSpaceOnUse"
       gradientTransform="translate(-34.057076,-20.39755)">
      <stop
         stop-color="white"
         id="stop4" />
      <stop
         offset="1"
         stop-color="#196FC1"
         id="stop5" />
    </linearGradient>
  </defs>
</svg>
