<svg width="48" height="55" viewBox="0 0 48 55" fill="none" xmlns="http://www.w3.org/2000/svg">
<path d="M48 41.2502L23.9998 55L0 41.2502V13.7501L23.9998 0L48 13.7501V41.2502Z" fill="white"/>
<path d="M20.946 18.3431C20.946 17.7356 21.4423 17.2431 22.0545 17.2431H25.9343C26.5465 17.2431 27.0428 17.7356 27.0428 18.3431V18.6181C27.0428 19.2256 26.5465 19.718 25.9343 19.718H22.0545C21.4423 19.718 20.946 19.2256 20.946 18.6181V18.3431Z" fill="#585858"/>
<path d="M21.7774 19.443H26.2114V26.5929H21.7774V19.443Z" fill="#585858"/>
<path d="M21.2007 26.8916C21.5613 26.361 22.164 26.0429 22.8089 26.0429H25.1698C25.8203 26.0429 26.4274 26.3664 26.7868 26.9044L32.1134 34.8793C32.968 36.1589 32.0434 37.8677 30.4964 37.8677H17.3889C15.8349 37.8677 14.9117 36.145 15.7806 34.8664L21.2007 26.8916Z" fill="#585858"/>
</svg>
