<svg width="158" height="160" viewBox="0 0 158 160" fill="none" xmlns="http://www.w3.org/2000/svg">
<rect width="158" height="160" fill="#1E1E1E"/>
<rect x="-343" y="-683" width="1920" height="951" fill="white"/>
<rect x="-121" y="-46" width="400" height="253.292" rx="5" fill="#196FC1"/>
<path d="M23.7 55.9631V79.7492H55.3V55.9631H23.7ZM7.9 32.177H118.5V20.2839C118.5 13.7156 113.195 8.39086 106.65 8.39086H19.75C13.2054 8.39086 7.9 13.7156 7.9 20.2839V32.177ZM90.8486 40.1057H7.9V115.428C7.9 121.997 13.2054 127.321 19.75 127.321H86.9V119.393H75.05C72.8685 119.393 71.1 117.618 71.1 115.428C71.1 113.239 72.8685 111.464 75.05 111.464H86.9V103.535H75.05C72.8685 103.535 71.1 101.76 71.1 99.571C71.1 97.3815 72.8685 95.6066 75.05 95.6066H86.9V87.6779H75.05C72.8685 87.6779 71.1 85.903 71.1 83.7135V51.9987C71.1 49.8093 72.8685 48.0344 75.05 48.0344H87.2951C87.8875 45.1052 89.1235 42.4106 90.8486 40.1057ZM126.4 32.177H138.25C149.158 32.177 158 41.0515 158 51.9987V139.214C158 150.162 149.158 159.036 138.25 159.036H106.65C95.7424 159.036 86.9 150.162 86.9 139.214V135.25H19.75C8.84238 135.25 0 126.376 0 115.428V20.2839C0 9.33666 8.84238 0.462158 19.75 0.462158H106.65C117.558 0.462158 126.4 9.33666 126.4 20.2839V32.177ZM86.9 79.7492V55.9631H79V79.7492H86.9ZM19.75 48.0344H59.25C61.4315 48.0344 63.2 49.8093 63.2 51.9987V83.7135C63.2 85.903 61.4315 87.6779 59.25 87.6779H19.75C17.5685 87.6779 15.8 85.903 15.8 83.7135V51.9987C15.8 49.8093 17.5685 48.0344 19.75 48.0344ZM94.8 51.9987V139.214C94.8 145.783 100.105 151.108 106.65 151.108H138.25C144.795 151.108 150.1 145.783 150.1 139.214V51.9987C150.1 45.4304 144.795 40.1057 138.25 40.1057H106.65C100.105 40.1057 94.8 45.4304 94.8 51.9987ZM19.75 103.535C17.5685 103.535 15.8 101.76 15.8 99.571C15.8 97.3815 17.5685 95.6066 19.75 95.6066H59.25C61.4315 95.6066 63.2 97.3815 63.2 99.571C63.2 101.76 61.4315 103.535 59.25 103.535H19.75ZM19.75 119.393C17.5685 119.393 15.8 117.618 15.8 115.428C15.8 113.239 17.5685 111.464 19.75 111.464H43.45C45.6315 111.464 47.4 113.239 47.4 115.428C47.4 117.618 45.6315 119.393 43.45 119.393H19.75ZM106.65 55.9631H138.25C140.432 55.9631 142.2 57.738 142.2 59.9274V75.7848C142.2 77.9743 140.432 79.7492 138.25 79.7492H106.65C104.468 79.7492 102.7 77.9743 102.7 75.7848V59.9274C102.7 57.738 104.468 55.9631 106.65 55.9631ZM110.6 63.8918V71.8205H134.3V63.8918H110.6ZM106.65 95.6066C104.468 95.6066 102.7 93.8317 102.7 91.6422C102.7 89.4528 104.468 87.6779 106.65 87.6779H138.25C140.432 87.6779 142.2 89.4528 142.2 91.6422C142.2 93.8317 140.432 95.6066 138.25 95.6066H106.65ZM106.65 111.464C104.468 111.464 102.7 109.689 102.7 107.5C102.7 105.31 104.468 103.535 106.65 103.535H130.35C132.532 103.535 134.3 105.31 134.3 107.5C134.3 109.689 132.532 111.464 130.35 111.464H106.65ZM15.8 16.3196H23.7V24.2483H15.8V16.3196ZM31.6 16.3196H39.5V24.2483H31.6V16.3196ZM47.4 16.3196H55.3V24.2483H47.4V16.3196ZM114.55 143.179C112.368 143.179 110.6 141.404 110.6 139.214C110.6 137.025 112.368 135.25 114.55 135.25H130.35C132.532 135.25 134.3 137.025 134.3 139.214C134.3 141.404 132.532 143.179 130.35 143.179H114.55Z" fill="white"/>
</svg>
