<svg width="193" height="193" viewBox="0 0 193 193" fill="none" xmlns="http://www.w3.org/2000/svg">
<rect width="193" height="193" fill="#1E1E1E"/>
<rect x="-326" y="-316" width="1920" height="980" fill="#222222"/>
<rect x="-104" y="-15" width="400" height="253.292" rx="5" fill="white"/>
<path fill-rule="evenodd" clip-rule="evenodd" d="M176.917 96.5C176.917 140.913 140.912 176.917 96.4999 176.917C52.087 176.917 16.0833 140.913 16.0833 96.5C16.0833 52.0871 52.087 16.0834 96.4999 16.0834C140.912 16.0834 176.917 52.0871 176.917 96.5ZM65.7954 97.231C65.7954 80.2925 79.5613 66.5266 96.4999 66.5266C101.668 66.5266 106.581 67.8059 110.829 70.1087L118.3 62.6373C112.006 58.6457 104.534 56.2917 96.4999 56.2917C73.8809 56.2917 55.5605 74.6121 55.5605 97.231H40.2083L60.6779 117.701L81.1476 97.231H65.7954ZM132.322 76.7614L111.852 97.231H127.205C127.205 114.17 113.439 127.936 96.4999 127.936C91.3315 127.936 86.4189 126.656 82.1713 124.353L74.6997 131.825C80.994 135.817 88.4655 138.17 96.4999 138.17C119.119 138.17 137.439 119.85 137.439 97.231H152.792L132.322 76.7614Z" fill="#196FC1"/>
<path d="M97 21C81.9686 21 67.2748 25.428 54.7767 33.724C42.2786 42.0201 32.5374 53.8116 26.7852 67.6074C21.0329 81.4032 19.5279 96.5837 22.4604 111.229C25.3928 125.875 32.6311 139.328 43.2599 149.887C53.8887 160.445 67.4306 167.636 82.1732 170.549C96.9157 173.462 112.197 171.967 126.084 166.253C139.971 160.538 151.841 150.861 160.192 138.446C168.543 126.03 173 111.432 173 96.5C173 76.4761 164.993 57.2724 150.74 43.1134C136.487 28.9544 117.156 21 97 21ZM30.5 96.5C30.5046 80.6256 36.2917 65.2891 46.7925 53.3234L140.463 146.377C130.829 154.641 119.011 159.985 106.41 161.775C93.8104 163.564 80.9581 161.723 69.3797 156.472C57.8013 151.22 47.9833 142.777 41.0915 132.147C34.1997 121.516 30.5237 109.144 30.5 96.5ZM147.208 139.677L53.5375 46.6228C66.2835 36.043 82.5534 30.5847 99.1465 31.3217C115.739 32.0586 131.454 38.9375 143.199 50.605C154.944 62.2725 161.868 77.8838 162.61 94.3677C163.352 110.852 157.857 127.014 147.208 139.677Z" fill="white"/>
</svg>
