<svg width="92" height="113" viewBox="0 0 92 113" fill="none" xmlns="http://www.w3.org/2000/svg">
<rect width="92" height="113" fill="#1E1E1E"/>
<rect x="-376" y="-342" width="1920" height="951" fill="white"/>
<rect x="-154" y="-70" width="400" height="253.292" rx="5" fill="#196FC1"/>
<path d="M45.8512 65.8656C50.2445 65.8656 53.806 62.2912 53.806 57.8819C53.806 53.4726 50.2445 49.8982 45.8512 49.8982C41.4578 49.8982 37.8964 53.4726 37.8964 57.8819C37.8964 62.2912 41.4578 65.8656 45.8512 65.8656Z" fill="white"/>
<path d="M90.8749 53.8335L77.6706 27.0106V7.98371C77.6706 5.8663 76.8325 3.83562 75.3407 2.33839C73.8489 0.841152 71.8255 1.0587e-05 69.7158 0H21.987C19.8772 1.0587e-05 17.8539 0.841152 16.3621 2.33839C14.8703 3.83562 14.0322 5.8663 14.0322 7.98371V27.0106L0.827652 53.8337C0.17836 55.1456 -0.0974687 56.6119 0.030564 58.071C0.158597 59.5301 0.68552 60.9255 1.55326 62.1032L38.2838 112.18C38.5321 112.518 38.8807 112.77 39.2797 112.898C39.6787 113.026 40.1078 113.024 40.5058 112.893C40.9038 112.762 41.2503 112.508 41.496 112.167C41.7417 111.826 41.874 111.417 41.874 110.996V73.344C38.1246 72.3724 34.8571 70.0618 32.6838 66.8452C30.5105 63.6287 29.5807 59.727 30.0686 55.8716C30.5565 52.0162 32.4287 48.4718 35.3342 45.9027C38.2397 43.3336 41.9791 41.9162 45.8514 41.9162C49.7237 41.9162 53.463 43.3336 56.3686 45.9027C59.2741 48.4718 61.1463 52.0162 61.6342 55.8716C62.1221 59.727 61.1923 63.6287 59.019 66.8452C56.8457 70.0618 53.5781 72.3724 49.8288 73.344V110.996C49.8288 111.417 49.961 111.827 50.2067 112.167C50.4524 112.508 50.799 112.762 51.197 112.893C51.595 113.024 52.0241 113.026 52.4231 112.898C52.8221 112.77 53.1707 112.518 53.419 112.18L90.1493 62.1027C91.017 60.925 91.5439 59.5297 91.672 58.0706C91.8 56.6115 91.5242 55.1453 90.8749 53.8335ZM69.7158 23.9511H21.987V7.98371H69.7158V23.9511Z" fill="white"/>
</svg>
