<svg width="120" height="169" viewBox="0 0 120 169" fill="none" xmlns="http://www.w3.org/2000/svg">
<rect width="120" height="169" fill="#1E1E1E"/>
<rect x="-1438" y="-330" width="1920" height="980" fill="#222222"/>
<rect x="-140" y="-29" width="400" height="253.292" rx="5" fill="white"/>
<path d="M87.0799 125.879V151.74L99.3853 156.897V119.103C95.5199 121.772 91.3972 124.042 87.0799 125.879ZM20.6147 119.103V156.639L32.9201 151.482V125.879C28.6027 124.042 24.4801 121.772 20.6147 119.103ZM59.9998 131.381C54.1892 131.384 48.4009 130.656 42.7696 129.214V168.244L59.9998 161.023L77.2301 168.244V129.214C71.5988 130.656 65.8105 131.384 59.9998 131.381ZM59.9998 0.637207C26.9159 0.637207 0 27.7384 0 61.0505C0 94.3626 26.9159 121.463 59.9998 121.463C93.0838 121.463 120 94.3623 120 61.0502C120 27.7381 93.0842 0.637207 59.9998 0.637207ZM59.9998 108.698C33.7716 108.698 12.4332 87.2122 12.4332 60.8033C12.4332 34.3942 33.7716 12.9088 59.9998 12.9088C86.2281 12.9088 107.567 34.3942 107.567 60.8033C107.567 87.2125 86.2284 108.698 59.9998 108.698ZM59.9998 22.8261C39.2027 22.8261 22.2826 39.8624 22.2826 60.8033C22.2826 81.7443 39.2027 98.7799 59.9998 98.7799C80.797 98.7799 97.7171 81.7437 97.7171 60.803C97.7171 39.8624 80.7973 22.8261 59.9998 22.8261ZM75.5018 82.9673L59.9998 74.7615L44.4982 82.9673L47.4588 65.5873L34.9177 53.2787L52.2494 50.7427L59.9998 34.9294L67.7506 50.7427L85.0824 53.2787L72.5413 65.5873L75.5018 82.9673Z" fill="#196FC1"/>
</svg>
