<svg width="142" height="143" viewBox="0 0 142 143" fill="none" xmlns="http://www.w3.org/2000/svg">
<rect width="142" height="143" fill="#1E1E1E"/>
<rect x="-889" y="-681" width="1920" height="951" fill="white"/>
<rect x="-129" y="-44" width="400" height="253.292" rx="5" fill="#196FC1"/>
<path d="M139.633 0.455078H2.36667C0.946666 0.455078 0 1.40518 0 2.83034V140.596C0 142.021 0.946666 142.971 2.36667 142.971H139.633C141.053 142.971 142 142.021 142 140.596V2.83034C142 1.40518 141.053 0.455078 139.633 0.455078ZM137.267 138.22H4.73333V5.20561H137.267V138.22Z" fill="white"/>
<path d="M11.8332 52.7111H130.167C131.587 52.7111 132.533 51.761 132.533 50.3358V12.3316C132.533 10.9064 131.587 9.9563 130.167 9.9563H11.8332C10.4132 9.9563 9.4665 10.9064 9.4665 12.3316V50.3358C9.4665 51.761 10.4132 52.7111 11.8332 52.7111ZM14.1998 14.7068H127.8V47.9605H14.1998V14.7068Z" fill="white"/>
<path d="M11.8332 90.7151H59.1665C60.5865 90.7151 61.5332 89.765 61.5332 88.3399V59.8367C61.5332 58.4115 60.5865 57.4614 59.1665 57.4614H11.8332C10.4132 57.4614 9.4665 58.4115 9.4665 59.8367V88.3399C9.4665 89.765 10.4132 90.7151 11.8332 90.7151ZM14.1998 62.2119H56.7998V85.9646H14.1998V62.2119Z" fill="white"/>
<path d="M80.4667 57.4614H66.2667V62.2119H80.4667V57.4614Z" fill="white"/>
<path d="M132.533 66.9626H66.2667V71.7131H132.533V66.9626Z" fill="white"/>
<path d="M132.533 76.4635H66.2667V81.214H132.533V76.4635Z" fill="white"/>
<path d="M132.533 85.9647H66.2667V90.7152H132.533V85.9647Z" fill="white"/>
<path d="M99.3997 57.4614H85.1998V62.2119H99.3997V57.4614Z" fill="white"/>
<path d="M11.8332 114.468H26.0332C27.4532 114.468 28.3998 113.518 28.3998 112.092V97.8409C28.3998 96.4157 27.4532 95.4656 26.0332 95.4656H11.8332C10.4132 95.4656 9.4665 96.4157 9.4665 97.8409V112.092C9.4665 113.518 10.4132 114.468 11.8332 114.468ZM14.1998 100.216H23.6665V109.717H14.1998V100.216Z" fill="white"/>
<path d="M37.8667 97.8408H33.1334V102.591H37.8667V97.8408Z" fill="white"/>
<path d="M61.5334 107.342H33.1334V112.093H61.5334V107.342Z" fill="white"/>
<path d="M47.3332 97.8408H42.5999V102.591H47.3332V97.8408Z" fill="white"/>
<path d="M99.3998 112.092V97.8409C99.3998 96.4157 98.4532 95.4656 97.0332 95.4656H82.8332C81.4132 95.4656 80.4665 96.4157 80.4665 97.8409V112.092C80.4665 113.518 81.4132 114.468 82.8332 114.468H97.0332C98.4532 114.468 99.3998 113.518 99.3998 112.092ZM94.6665 109.717H85.1998V100.216H94.6665V109.717Z" fill="white"/>
<path d="M108.867 97.8408H104.133V102.591H108.867V97.8408Z" fill="white"/>
<path d="M132.533 107.342H104.133V112.093H132.533V107.342Z" fill="white"/>
<path d="M118.333 97.8408H113.6V102.591H118.333V97.8408Z" fill="white"/>
<path d="M127.8 97.8408H123.066V102.591H127.8V97.8408Z" fill="white"/>
<path d="M56.7997 97.8408H52.0664V102.591H56.7997V97.8408Z" fill="white"/>
<path d="M16.5665 123.969H11.8331V128.719H16.5665V123.969Z" fill="white"/>
<path d="M26.0336 123.969H21.3002V128.719H26.0336V123.969Z" fill="white"/>
<path d="M35.5001 123.969H30.7667V128.719H35.5001V123.969Z" fill="white"/>
<path d="M44.9666 123.969H40.2332V128.719H44.9666V123.969Z" fill="white"/>
<path d="M54.4331 123.969H49.6998V128.719H54.4331V123.969Z" fill="white"/>
<path d="M63.9002 123.969H59.1669V128.719H63.9002V123.969Z" fill="white"/>
<path d="M73.3667 123.969H68.6334V128.719H73.3667V123.969Z" fill="white"/>
<path d="M82.8332 123.969H78.0999V128.719H82.8332V123.969Z" fill="white"/>
<path d="M92.2997 123.969H87.5664V128.719H92.2997V123.969Z" fill="white"/>
<path d="M101.767 123.969H97.0335V128.719H101.767V123.969Z" fill="white"/>
<path d="M111.233 123.969H106.5V128.719H111.233V123.969Z" fill="white"/>
<path d="M120.7 123.969H115.966V128.719H120.7V123.969Z" fill="white"/>
<path d="M130.167 123.969H125.434V128.719H130.167V123.969Z" fill="white"/>
</svg>
