<svg width="166" height="168" viewBox="0 0 166 168" fill="none" xmlns="http://www.w3.org/2000/svg">
<rect width="166" height="168" fill="#1E1E1E"/>
<rect x="-339" y="-700" width="1920" height="980" fill="#222222"/>
<rect x="-117" y="-34" width="400" height="253.292" rx="5" fill="white"/>
<path d="M83 0.977701C61.0128 0.977701 41.0383 9.57338 26.1891 23.5811L23.3438 20.7228V13.991C23.3438 13.5536 23.2115 13.1632 23.0221 12.8013C22.9858 12.6373 22.895 12.4603 22.6875 12.252L12.2114 1.73783H12.2088C11.7393 1.26405 11.0909 0.975098 10.375 0.975098C8.94066 0.975098 7.78125 2.13872 7.78125 3.57827V8.78462H2.59375C1.15941 8.78462 0 9.94824 0 11.3878C0 12.1063 0.2905 12.7571 0.759969 13.2282L11.1324 23.6383C11.135 23.6409 11.135 23.6409 11.135 23.6409L11.2413 23.7477C11.4488 23.9559 11.6226 24.047 11.786 24.0835C12.1439 24.2709 12.5356 24.4037 12.9688 24.4037H19.6762L22.5215 27.2619C8.56715 42.1625 0 62.2096 0 84.2793C0 130.285 37.1607 167.581 83 167.581C128.839 167.581 166 130.285 166 84.2793C166 38.2734 128.839 0.977701 83 0.977701ZM83 157.166C42.8903 157.166 10.375 124.532 10.375 84.2767C10.375 65.0861 17.7776 47.6396 29.8567 34.6211L37.1918 41.9855C26.988 53.1089 20.75 67.96 20.75 84.2767C20.75 118.782 48.6198 146.753 83 146.753C117.38 146.753 145.25 118.782 145.25 84.2767C145.25 49.7716 117.38 21.8005 83 21.8005C66.7424 21.8005 51.9476 28.0585 40.8593 38.3046L33.5242 30.9402C46.493 18.8173 63.8789 11.3878 83 11.3878C123.11 11.3878 155.625 44.0212 155.625 84.2767C155.625 124.532 123.11 157.166 83 157.166ZM51.9087 56.7533C45.4503 64.0969 41.5 73.7104 41.5 84.2767C41.5 107.281 60.079 125.927 83 125.927C105.921 125.927 124.5 107.281 124.5 84.2767C124.5 61.2724 105.921 42.6259 83 42.6259C72.472 42.6259 62.8932 46.5905 55.5763 53.0724L48.2412 45.7106C57.4438 37.3492 69.6085 32.2132 83 32.2132C111.651 32.2132 134.875 55.522 134.875 84.2767C134.875 113.031 111.651 136.34 83 136.34C54.3494 136.34 31.125 113.031 31.125 84.2767C31.125 70.8365 36.2425 58.625 44.5736 49.3915L51.9087 56.7533ZM66.6257 71.5237C63.8918 75.0484 62.25 79.466 62.25 84.2793C62.25 95.7801 71.5408 105.105 83 105.105C94.4592 105.105 103.75 95.7801 103.75 84.2793C103.75 72.7784 94.4592 63.4539 83 63.4539C78.2067 63.4539 73.8052 65.1017 70.2932 67.8428L62.914 60.4368C68.3375 55.8292 75.3407 53.0386 83 53.0386C100.189 53.0386 114.125 67.0254 114.125 84.2767C114.125 101.528 100.189 115.515 83 115.515C65.8112 115.515 51.875 101.528 51.875 84.2767C51.875 76.5895 54.6555 69.5609 59.2464 64.1177L66.6257 71.5237ZM81.1662 86.1171C82.1804 87.1349 83.8196 87.1349 84.8338 86.1171C85.8479 85.0993 85.8479 83.4541 84.8338 82.4362L77.7606 75.3374C79.3039 74.4263 81.0806 73.8666 83 73.8666C88.7296 73.8666 93.375 78.5289 93.375 84.2793C93.375 90.0297 88.7296 94.692 83 94.692C77.2704 94.692 72.625 90.0297 72.625 84.2793C72.625 82.3503 73.1827 80.5671 74.0931 79.0182L81.1662 86.1171Z" fill="#196FC1"/>
</svg>
