<svg width="99" height="170" viewBox="0 0 99 170" fill="none" xmlns="http://www.w3.org/2000/svg">
<rect width="99" height="170" fill="#1E1E1E"/>
<rect x="-911" y="-298" width="1920" height="951" fill="white"/>
<rect x="-151" y="-26" width="400" height="253.292" rx="5" fill="#196FC1"/>
<path d="M90.3404 75.8317C95.0701 75.8317 98.9181 71.9697 98.9181 67.2228V8.60891C98.9181 3.86203 95.0704 0 90.3404 0H61.1394C56.4097 0 52.562 3.86203 52.562 8.60891V26.3849C51.8018 26.3342 51.0248 26.5976 50.4435 27.181C49.3744 28.254 49.3744 29.9939 50.4435 31.0662L54.5306 35.1681H46.3565V8.60891C46.3565 3.86203 42.5088 0 37.7788 0H8.57774C3.84805 0 0 3.86203 0 8.60891V67.2228C0 71.9697 3.84805 75.8317 8.57774 75.8317H20.4407V93.7823H8.57774C3.84805 93.7823 0 97.6443 0 102.391V161.005C0 165.752 3.84805 169.614 8.57774 169.614H37.7788C42.5085 169.614 46.3565 165.752 46.3565 161.005V102.391C46.3565 97.6443 42.5085 93.7823 37.7788 93.7823H25.9158V75.8317H37.7788C42.5085 75.8317 46.3565 71.9697 46.3565 67.2228V40.6633H54.5302L50.4432 44.7652C49.3741 45.8382 49.3741 47.5781 50.4432 48.6504C50.9779 49.1867 51.6787 49.4554 52.3791 49.4554C52.4402 49.4554 52.5006 49.4508 52.5616 49.4465V67.2225C52.5616 71.9694 56.4097 75.8314 61.1394 75.8314H73.0024V93.782H61.1394C56.4097 93.782 52.5616 97.644 52.5616 102.391V161.005C52.5616 165.752 56.4097 169.614 61.1394 169.614H90.3404C95.0701 169.614 98.9181 165.752 98.9181 161.005V102.391C98.9181 97.6443 95.0701 93.7823 90.3404 93.7823H78.4774V75.8317H90.3404ZM37.7788 99.2772C39.4896 99.2772 40.8815 100.674 40.8815 102.391V161.005C40.8815 162.722 39.4896 164.119 37.7788 164.119H8.57774C6.86695 164.119 5.47501 162.722 5.47501 161.005V102.391C5.47501 100.674 6.86662 99.2772 8.57774 99.2772H20.4407V110.411L16.3541 106.309C15.2846 105.236 13.5514 105.236 12.4822 106.309C11.4131 107.382 11.4131 109.122 12.4822 110.194L21.2425 118.987C21.2461 118.99 21.2501 118.993 21.2534 118.996C21.3141 119.056 21.3772 119.114 21.4432 119.169C21.4739 119.194 21.5062 119.216 21.5376 119.24C21.5779 119.27 21.6168 119.301 21.6587 119.329C21.696 119.354 21.7347 119.376 21.7729 119.399C21.8112 119.422 21.8489 119.446 21.8881 119.468C21.9271 119.488 21.9677 119.506 22.008 119.526C22.0489 119.545 22.0888 119.566 22.1311 119.583C22.17 119.599 22.2103 119.612 22.2502 119.626C22.2948 119.642 22.3387 119.659 22.3839 119.673C22.4242 119.685 22.4645 119.694 22.5051 119.704C22.5509 119.716 22.5968 119.729 22.6434 119.739C22.6906 119.748 22.7378 119.753 22.7853 119.76C22.8262 119.766 22.8668 119.774 22.9081 119.778C22.9979 119.787 23.088 119.792 23.1781 119.792C23.2682 119.792 23.3583 119.787 23.4481 119.778C23.4897 119.774 23.53 119.766 23.5709 119.76C23.6184 119.753 23.6659 119.748 23.7128 119.739C23.76 119.729 23.8052 119.716 23.8511 119.704C23.8917 119.694 23.932 119.686 23.9723 119.673C24.0178 119.659 24.0617 119.642 24.1063 119.626C24.1459 119.612 24.1858 119.599 24.2248 119.583C24.2667 119.565 24.3073 119.544 24.3482 119.525C24.3882 119.506 24.4284 119.488 24.4677 119.467C24.507 119.446 24.5446 119.422 24.5829 119.399C24.6212 119.375 24.6598 119.354 24.6971 119.329C24.7387 119.301 24.7783 119.27 24.8182 119.24C24.8496 119.216 24.882 119.194 24.9126 119.169C24.9787 119.114 25.0417 119.057 25.1024 118.996C25.1061 118.993 25.11 118.99 25.1133 118.987L33.8736 110.194C34.9427 109.121 34.9427 107.382 33.8736 106.309C32.8042 105.236 31.0709 105.236 30.0018 106.309L25.9151 110.411V99.2772H37.7788ZM23.1784 41.0297C21.4676 41.0297 20.0757 39.6327 20.0757 37.9157C20.0757 36.1987 21.4676 34.8017 23.1784 34.8017C24.8892 34.8017 26.2812 36.1984 26.2812 37.9157C26.2812 39.633 24.8892 41.0297 23.1784 41.0297ZM40.8815 67.2228C40.8815 68.9398 39.4896 70.3368 37.7788 70.3368H25.9158V46.0727C28.4465 45.2147 30.4507 43.2032 31.3056 40.6633H40.8812V67.2228H40.8815ZM40.8815 35.1684H31.3059C30.1606 31.7652 26.9512 29.3071 23.1787 29.3071C18.4491 29.3071 14.601 33.1692 14.601 37.916C14.601 41.7025 17.0502 44.9232 20.4411 46.0727V70.3368H8.57807C6.86728 70.3368 5.47534 68.9398 5.47534 67.2228V8.60891C5.47534 6.89189 6.86695 5.4949 8.57807 5.4949H37.7791C39.4899 5.4949 40.8818 6.89189 40.8818 8.60891V35.1684H40.8815ZM61.1397 70.3368C59.4289 70.3368 58.037 68.9398 58.037 67.2228V44.9156L63.0756 39.8586C64.1447 38.7856 64.1447 37.0458 63.0756 35.9734L58.037 30.9165V8.60891C58.037 6.89189 59.4286 5.4949 61.1397 5.4949H90.3407C92.0515 5.4949 93.4435 6.89189 93.4435 8.60891V67.2228C93.4435 68.9398 92.0519 70.3368 90.3407 70.3368H78.4777V46.0727C81.8686 44.9232 84.3178 41.7022 84.3178 37.916C84.3178 33.1692 80.4697 29.3071 75.7401 29.3071C71.0104 29.3071 67.1623 33.1692 67.1623 37.916C67.1623 41.7025 69.6115 44.9232 73.0024 46.0727V70.3368H61.1397ZM90.3404 99.2772C92.0512 99.2772 93.4431 100.674 93.4431 102.391V161.005C93.4431 162.722 92.0515 164.119 90.3404 164.119H61.1394C59.4286 164.119 58.0366 162.722 58.0366 161.005V102.391C58.0366 100.674 59.4283 99.2772 61.1394 99.2772H73.0024V110.411L68.9157 106.309C67.8462 105.236 66.113 105.236 65.0442 106.309C63.9751 107.382 63.9751 109.122 65.0442 110.194L73.8045 118.987C73.8081 118.99 73.8121 118.993 73.8154 118.996C73.8761 119.056 73.9392 119.114 74.0052 119.169C74.0359 119.194 74.0682 119.216 74.0996 119.24C74.1398 119.27 74.1788 119.301 74.2207 119.329C74.258 119.354 74.2966 119.376 74.3349 119.399C74.3732 119.422 74.4108 119.446 74.4501 119.468C74.4891 119.488 74.5297 119.506 74.5699 119.526C74.6109 119.545 74.6508 119.566 74.693 119.583C74.732 119.599 74.7723 119.612 74.8122 119.626C74.8568 119.642 74.9007 119.659 74.9459 119.673C74.9862 119.685 75.0264 119.694 75.067 119.704C75.1129 119.716 75.1588 119.729 75.2053 119.739C75.2525 119.748 75.2997 119.753 75.3473 119.76C75.3882 119.766 75.4288 119.774 75.4701 119.778C75.5598 119.787 75.6499 119.792 75.7401 119.792C75.8302 119.792 75.9203 119.787 76.0101 119.778C76.0517 119.774 76.0919 119.766 76.1329 119.76C76.1804 119.753 76.2279 119.748 76.2748 119.739C76.322 119.729 76.3672 119.716 76.4131 119.704C76.4537 119.694 76.494 119.686 76.5342 119.673C76.5798 119.659 76.6237 119.642 76.6682 119.626C76.7082 119.612 76.7478 119.599 76.7867 119.583C76.8287 119.565 76.8693 119.544 76.9102 119.525C76.9501 119.506 76.9904 119.488 77.0297 119.467C77.069 119.446 77.1066 119.422 77.1449 119.399C77.1832 119.375 77.2218 119.354 77.2591 119.329C77.3007 119.301 77.3399 119.27 77.3802 119.24C77.4116 119.216 77.4439 119.194 77.4746 119.169C77.5406 119.114 77.6037 119.057 77.6644 118.996C77.668 118.993 77.672 118.99 77.6753 118.987L86.4356 110.194C87.5047 109.121 87.5047 107.382 86.4356 106.309C85.3661 105.236 83.6329 105.236 82.5638 106.309L78.4771 110.411V99.2772H90.3404ZM75.7401 41.0297C74.0293 41.0297 72.6373 39.6327 72.6373 37.9157C72.6373 36.1987 74.0293 34.8017 75.7401 34.8017C77.4509 34.8017 78.8428 36.1984 78.8428 37.9157C78.8428 39.633 77.4509 41.0297 75.7401 41.0297Z" fill="white"/>
<path d="M75.7403 123.089C71.0106 123.089 67.1626 126.951 67.1626 131.698C67.1626 136.445 71.0106 140.307 75.7403 140.307C80.47 140.307 84.3181 136.445 84.3181 131.698C84.3181 126.951 80.47 123.089 75.7403 123.089ZM75.7403 134.812C74.0295 134.812 72.6376 133.415 72.6376 131.698C72.6376 129.981 74.0295 128.584 75.7403 128.584C77.4511 128.584 78.8431 129.981 78.8431 131.698C78.8431 133.415 77.4511 134.812 75.7403 134.812Z" fill="white"/>
<path d="M23.1788 123.089C18.4491 123.089 14.6011 126.951 14.6011 131.698C14.6011 136.445 18.4491 140.307 23.1788 140.307C27.9085 140.307 31.7566 136.445 31.7566 131.698C31.7566 126.951 27.9088 123.089 23.1788 123.089ZM23.1788 134.812C21.468 134.812 20.0761 133.415 20.0761 131.698C20.0761 129.981 21.468 128.584 23.1788 128.584C24.8896 128.584 26.2815 129.981 26.2815 131.698C26.2815 133.415 24.8896 134.812 23.1788 134.812Z" fill="white"/>
</svg>
