<svg width="270" height="270" viewBox="0 0 270 270" fill="none" xmlns="http://www.w3.org/2000/svg">
<rect width="270" height="270" fill="#1E1E1E"/>
<rect x="-352" y="-212" width="1919" height="620" fill="white"/>
<circle cx="135" cy="135" r="135" fill="#623679"/>
<g clip-path="url(#clip0_0_1)">
<path d="M178.929 119.039L137.026 155.13C133.534 154.559 129.829 155.607 127.139 158.301C122.697 162.739 122.697 169.939 127.139 174.377C131.577 178.819 138.777 178.819 143.215 174.377C145.909 171.687 146.957 167.983 146.386 164.491L182.477 122.588C183.446 121.46 183.48 119.882 182.557 118.959C181.634 118.037 180.057 118.07 178.929 119.039Z" fill="white"/>
<path d="M221.131 130.125C214.026 113.337 202.19 99.085 187.276 89.0088C179.815 83.9687 171.585 79.9731 162.796 77.2383C154.007 74.5063 144.654 73.0347 134.998 73.0347C122.123 73.0347 109.799 75.6489 98.6074 80.3862C81.8164 87.4878 67.5669 99.3267 57.4878 114.242C52.4478 121.703 48.4561 129.932 45.7207 138.721C42.9893 147.511 41.5171 156.86 41.5171 166.519C41.5171 179.395 44.1313 191.718 48.8687 202.91C55.9702 219.701 67.8091 233.95 82.7236 244.03C90.1851 249.066 98.4141 253.061 107.204 255.796C115.993 258.528 125.342 260 134.998 260C147.876 260 160.2 257.386 171.392 252.648C188.18 245.547 202.433 233.708 212.508 218.793C217.548 211.332 221.543 203.103 224.279 194.313C227.011 185.524 228.482 176.175 228.482 166.519C228.482 153.64 225.868 141.316 221.131 130.125ZM188.49 213.575L178.592 203.678L172.16 210.109L182.054 220.003C179.769 222.017 177.359 223.893 174.828 225.603C169.141 229.447 162.875 232.485 156.19 234.562C150.885 236.212 145.32 237.249 139.546 237.612V223.617H130.454V237.616C122.255 237.102 114.468 235.214 107.269 232.171C100.171 229.171 93.6514 225.036 87.938 220.007L97.8398 210.109L91.4082 203.678L81.5137 213.572C79.501 211.287 77.624 208.876 75.9141 206.345C72.0698 200.659 69.0322 194.393 66.9546 187.708C65.3052 182.407 64.2686 176.837 63.9053 171.063H77.9004V161.968H63.9014C64.416 153.776 66.3042 145.986 69.3462 138.786C72.3462 131.688 76.478 125.172 81.5103 119.459L91.4082 129.357L97.8398 122.925L87.9458 113.031C90.231 111.018 92.6411 109.142 95.1724 107.432C100.859 103.587 107.125 100.549 113.811 98.4722C119.111 96.8228 124.681 95.7856 130.455 95.4224V109.418H139.546V95.4189C147.742 95.9336 155.532 97.8213 162.732 100.863C175.501 106.263 186.402 115.312 194.086 126.69C197.931 132.377 200.969 138.643 203.046 145.328C204.696 150.629 205.732 156.198 206.096 161.968L192.1 161.972V171.064H206.1C205.585 179.259 203.697 187.05 200.655 194.25C197.654 201.347 193.519 207.866 188.49 213.575Z" fill="white"/>
<path d="M77.9795 84.415L63.3447 66.9731L49.4136 78.668L64.0449 96.1064L77.9795 84.415Z" fill="white"/>
<path d="M220.586 78.668L206.651 66.9731L192.021 84.415L205.956 96.1064L220.586 78.668Z" fill="white"/>
<path d="M121.608 58.6982V66.9731H148.393V58.6982C150.266 57.582 151.991 56.2427 153.519 54.7105C158.256 49.981 161.192 43.4126 161.192 36.1899C161.192 28.9668 158.256 22.3989 153.519 17.6733C148.789 12.936 142.221 9.9961 134.998 10C127.779 9.9961 121.207 12.936 116.478 17.6733C111.744 22.3989 108.808 28.9673 108.808 36.1899C108.808 43.4126 111.744 49.981 116.478 54.7105C118.01 56.2427 119.735 57.582 121.608 58.6982ZM121.608 36.3189V50.5298C121.446 50.375 121.283 50.2231 121.124 50.0684C117.567 46.5044 115.381 41.6196 115.377 36.1904C115.381 30.7607 117.567 25.8765 121.124 22.3159C124.684 18.7593 129.572 16.5689 134.998 16.5689C140.428 16.5689 145.312 18.7593 148.876 22.3159C152.433 25.8765 154.62 30.7607 154.624 36.1904C154.62 41.6196 152.433 46.5044 148.876 50.0684C148.717 50.2231 148.555 50.375 148.392 50.5298V36.3189H121.608Z" fill="white"/>
</g>
<defs>
<clipPath id="clip0_0_1">
<rect width="250" height="250" fill="white" transform="translate(10 10)"/>
</clipPath>
</defs>
</svg>
