<?xml version="1.0" encoding="UTF-8" standalone="no"?>
<svg
   width="200"
   height="200"
   viewBox="0 0 200 200"
   fill="none"
   version="1.1"
   id="svg6"
   sodipodi:docname="watch.svg"
   inkscape:version="1.4 (e7c3feb, 2024-10-09)"
   xmlns:inkscape="http://www.inkscape.org/namespaces/inkscape"
   xmlns:sodipodi="http://sodipodi.sourceforge.net/DTD/sodipodi-0.dtd"
   xmlns="http://www.w3.org/2000/svg"
   xmlns:svg="http://www.w3.org/2000/svg">
  <defs
     id="defs6" />
  <sodipodi:namedview
     id="namedview6"
     pagecolor="#505050"
     bordercolor="#eeeeee"
     borderopacity="1"
     inkscape:showpageshadow="0"
     inkscape:pageopacity="0"
     inkscape:pagecheckerboard="0"
     inkscape:deskcolor="#505050"
     inkscape:zoom="4.03"
     inkscape:cx="100"
     inkscape:cy="100"
     inkscape:window-width="1920"
     inkscape:window-height="1008"
     inkscape:window-x="0"
     inkscape:window-y="0"
     inkscape:window-maximized="1"
     inkscape:current-layer="svg6" />
  <rect
     width="200"
     height="200"
     fill="#1E1E1E"
     id="rect1"
     style="fill:#1e1e1e;fill-opacity:0" />
  <path
     d="M200 100C200 155.228 155.228 200 100 200C44.7715 200 0 155.228 0 100C0 44.7715 44.7715 0 100 0C155.228 0 200 44.7715 200 100Z"
     fill="#623679"
     id="path1" />
  <path
     d="M132.54 88.1767L101.501 114.911C98.9138 114.488 96.1697 115.264 94.1772 117.26C90.8869 120.547 90.8869 125.881 94.1772 129.168C97.4646 132.458 102.798 132.458 106.085 129.168C108.081 127.176 108.857 124.432 108.434 121.845L135.169 90.8058C135.886 89.9703 135.911 88.8017 135.227 88.1178C134.544 87.4345 133.375 87.4595 132.54 88.1767Z"
     fill="white"
     id="path2" />
  <path
     d="M163.801 96.3889C158.538 83.9536 149.771 73.3963 138.723 65.9324C133.196 62.1991 127.1 59.2394 120.59 57.2135C114.079 55.1899 107.151 54.0997 99.9985 54.0997C90.4612 54.0997 81.3328 56.0362 73.0425 59.5453C60.6047 64.8058 50.0495 73.5753 42.5835 84.6235C38.8502 90.1501 35.8934 96.246 33.8672 102.756C31.8439 109.267 30.7534 116.192 30.7534 123.347C30.7534 132.885 32.6899 142.013 36.199 150.303C41.4594 162.742 50.2289 173.296 61.2768 180.763C66.8037 184.493 72.8993 187.453 79.4101 189.479C85.9209 191.502 92.8458 192.593 99.9982 192.593C109.538 192.593 118.667 190.656 126.957 187.147C139.392 181.887 149.95 173.117 157.414 162.069C161.147 156.542 164.106 150.446 166.132 143.936C168.156 137.425 169.246 130.5 169.246 123.347C169.246 113.807 167.31 104.679 163.801 96.3889ZM139.622 158.204L132.291 150.872L127.526 155.637L134.855 162.965C133.162 164.457 131.377 165.847 129.502 167.113C125.289 169.961 120.648 172.211 115.696 173.75C111.767 174.972 107.644 175.74 103.367 176.009V165.642H96.6327V176.012C90.5592 175.631 84.7913 174.232 79.4582 171.979C74.2007 169.756 69.3714 166.693 65.1392 162.968L72.474 155.637L67.7098 150.872L60.3805 158.201C58.8896 156.509 57.4993 154.723 56.2326 152.848C53.3851 148.636 51.135 143.995 49.596 139.043C48.3742 135.116 47.6063 130.99 47.3372 126.714H57.704V119.976H47.3343C47.7156 113.908 49.1142 108.138 51.3675 102.804C53.5898 97.5466 56.6504 92.7203 60.378 88.4881L67.7098 95.8199L72.474 91.0558L65.145 83.7268C66.8377 82.2356 68.623 80.8456 70.498 79.579C74.7106 76.7314 79.3518 74.481 84.3041 72.9423C88.2306 71.7206 92.356 70.9523 96.633 70.6832V81.0503H103.368V70.6807C109.438 71.0619 115.209 72.4602 120.542 74.7135C130.001 78.7131 138.075 85.4167 143.768 93.8448C146.615 98.057 148.866 102.698 150.404 107.65C151.627 111.577 152.394 115.702 152.663 119.976L142.296 119.979V126.714H152.666C152.285 132.785 150.887 138.555 148.633 143.889C146.411 149.146 143.347 153.975 139.622 158.204Z"
     fill="white"
     id="path3" />
  <path
     d="M57.7626 62.5297L46.922 49.6097L36.6026 58.2726L47.4407 71.19L57.7626 62.5297Z"
     fill="white"
     id="path4" />
  <path
     d="M163.397 58.2726L153.075 49.6097L142.237 62.5297L152.56 71.19L163.397 58.2726Z"
     fill="white"
     id="path5" />
  <path
     d="M90.0803 43.4802V49.6097H109.92V43.4802C111.308 42.6534 112.586 41.6612 113.718 40.5263C117.227 37.0229 119.402 32.1575 119.402 26.8074C119.402 21.4569 117.227 16.5918 113.718 13.0914C110.214 9.58225 105.349 7.40451 99.9985 7.40741C94.651 7.40451 89.783 9.58225 86.2797 13.0914C82.7734 16.5918 80.5986 21.4572 80.5986 26.8074C80.5986 32.1575 82.7734 37.0229 86.2797 40.5263C87.4146 41.6612 88.6928 42.6534 90.0803 43.4802ZM90.0803 26.9028V37.4295C89.9598 37.3148 89.839 37.2023 89.7215 37.0877C87.0869 34.4477 85.4673 30.8294 85.4644 26.8077C85.4673 22.7857 87.0869 19.1678 89.7215 16.5303C92.3586 13.8958 95.9795 12.2732 99.9985 12.2732C104.021 12.2732 107.639 13.8958 110.279 16.5303C112.913 19.1678 114.533 22.7857 114.536 26.8077C114.533 30.8294 112.913 34.4477 110.279 37.0877C110.161 37.2023 110.041 37.3148 109.92 37.4295V26.9028H90.0803Z"
     fill="white"
     id="path6" />
</svg>
