<?xml version="1.0" encoding="UTF-8" standalone="no"?>
<!-- Created with Inkscape (http://www.inkscape.org/) -->

<svg
   xmlns:dc="http://purl.org/dc/elements/1.1/"
   xmlns:cc="http://creativecommons.org/ns#"
   xmlns:rdf="http://www.w3.org/1999/02/22-rdf-syntax-ns#"
   xmlns:svg="http://www.w3.org/2000/svg"
   xmlns="http://www.w3.org/2000/svg"
   xmlns:sodipodi="http://sodipodi.sourceforge.net/DTD/sodipodi-0.dtd"
   xmlns:inkscape="http://www.inkscape.org/namespaces/inkscape"
   width="438.65637"
   height="525.45874"
   viewBox="0 0 438.65638 525.45875"
   id="svg2"
   version="1.1"
   inkscape:version="0.91 r13725"
   sodipodi:docname="2015-05-23 starbeaker-logo-inkscape.svg">
  <defs
     id="defs4">
    <clipPath
       id="clipPath3350"
       clipPathUnits="userSpaceOnUse">
      <path
         inkscape:connector-curvature="0"
         id="path3352"
         d="M 0,500 500,500 500,0 0,0 0,500 Z" />
    </clipPath>
  </defs>
  <sodipodi:namedview
     id="base"
     pagecolor="#ffffff"
     bordercolor="#666666"
     borderopacity="1.0"
     inkscape:pageopacity="0.0"
     inkscape:pageshadow="2"
     inkscape:zoom="0.7"
     inkscape:cx="352.33586"
     inkscape:cy="303.13695"
     inkscape:document-units="px"
     inkscape:current-layer="g3348"
     showgrid="false"
     units="px"
     fit-margin-top="20"
     fit-margin-left="20"
     fit-margin-right="20"
     fit-margin-bottom="20"
     inkscape:window-width="1440"
     inkscape:window-height="878"
     inkscape:window-x="1432"
     inkscape:window-y="-8"
     inkscape:window-maximized="1" />
  <metadata
     id="metadata7">
    <rdf:RDF>
      <cc:Work
         rdf:about="">
        <dc:format>image/svg+xml</dc:format>
        <dc:type
           rdf:resource="http://purl.org/dc/dcmitype/StillImage" />
        <dc:title></dc:title>
      </cc:Work>
    </rdf:RDF>
  </metadata>
  <g
     inkscape:label="Layer 1"
     inkscape:groupmode="layer"
     id="layer1"
     transform="translate(7.8996227,10.367165)">
    <g
       id="g3352"
       transform="translate(96.071278,171.29078)">
      <g
         inkscape:label="background"
         id="layer1-3" />
      <g
         style="opacity:1"
         transform="matrix(1.25,0,0,-1.25,-197.14286,393.57143)"
         inkscape:label="starcorelabs-logo"
         id="g3344">
        <g
           id="g3348"
           clip-path="url(#clipPath3350)">
          <path
             inkscape:connector-curvature="0"
             id="path3356"
             style="fill:#196fc1;fill-opacity:1;fill-rule:nonzero;stroke:none"
             d="m 373.0576,70.5195 -246.11,0 c -20.306,0 -27.686,13.729 -16.494,30.676 l 110.788,167.657 0,140.629 -3.93,0 c -5.523,0 -9.996,4.476 -9.996,9.993 0,5.529 4.473,9.996 9.996,9.996 l 65.378,0 c 5.527,0 9.999,-4.467 9.999,-9.996 0,-5.517 -4.472,-9.993 -9.999,-9.993 l -3.928,0 0,-140.639 110.785,-167.647 c 11.199,-16.947 3.81,-30.676 -16.489,-30.676 m 28.762,38.768 -108.35,163.982 0,123.984 c 8.232,4.014 13.925,12.467 13.925,22.221 0,13.632 -11.085,24.709 -24.705,24.709 l -65.378,0 c -13.621,0 -24.702,-11.077 -24.702,-24.709 0,-9.754 5.698,-18.207 13.931,-22.221 l 0,-123.984 -108.357,-163.982 c -8.411,-12.721 -9.964,-26.108 -4.255,-36.747 5.729,-10.623 17.752,-16.724 33.009,-16.724 l 246.125,0 c 15.263,0 27.286,6.101 33.009,16.724 5.708,10.639 4.157,24.026 -4.252,36.747" />
          <g
             id="g3358"
             transform="translate(298.4121,112.8926)">
            <path
               d="m 0,0 -34.967,15.812 -12.164,-36.394 -13.544,35.903 -34.338,-17.132 15.812,34.966 -36.395,12.166 35.905,13.544 -17.133,34.337 34.966,-15.81 12.167,36.394 L -36.148,77.882 -1.811,95.014 -17.621,60.048 18.771,47.883 -17.133,34.339 0,0 Z"
               style="fill:#196fc1;fill-opacity:1;fill-rule:nonzero;stroke:none"
               id="path3360"
               inkscape:connector-curvature="0" />
          </g>
        </g>
      </g>
    </g>
  </g>
</svg>
